<svg width="46" height="46" viewBox="0 0 46 46" fill="none" xmlns="http://www.w3.org/2000/svg">
<path d="M14.2988 37.0685H10.6188C4.98376 36.666 2.45386 32.3343 2.45386 28.4818C2.45386 24.6293 4.98378 20.2785 10.5229 19.8951C11.3088 19.8185 11.9988 20.4318 12.0563 21.2368C12.1138 22.0226 11.5197 22.7126 10.7147 22.7701C6.99635 23.0385 5.32886 25.8368 5.32886 28.501C5.32886 31.1651 6.99635 33.9635 10.7147 34.2318H14.2988C15.0847 34.2318 15.7363 34.8835 15.7363 35.6693C15.7363 36.4551 15.0847 37.0685 14.2988 37.0685Z" fill="#1D9A78"/>
<path d="M31.9507 37.0682C31.9124 37.0682 31.8932 37.0682 31.8549 37.0682C31.0691 37.0682 30.3408 36.4166 30.3408 35.6307C30.3408 34.8066 30.9541 34.1932 31.7591 34.1932C34.1166 34.1932 36.2249 33.3691 37.8733 31.8933C40.8633 29.2866 41.0549 25.5299 40.2499 22.8849C39.4449 20.2591 37.2024 17.2499 33.2924 16.7708C32.6599 16.6941 32.1615 16.2149 32.0465 15.5824C31.2799 10.9824 28.8074 7.80076 25.0508 6.65076C21.1791 5.44326 16.6557 6.63159 13.8382 9.58326C11.0974 12.4391 10.4649 16.4449 12.0557 20.8533C12.324 21.6008 11.9408 22.4249 11.1933 22.6932C10.4458 22.9616 9.62159 22.5783 9.35326 21.8308C7.41743 16.4258 8.29911 11.2508 11.7683 7.60909C15.3141 3.89076 21.0066 2.41491 25.8941 3.90991C30.3791 5.28991 33.5415 8.98908 34.6915 14.1257C38.6015 15.0074 41.7449 17.9783 42.9907 22.0799C44.3516 26.5458 43.1249 31.1458 39.7707 34.0591C37.6432 35.9758 34.864 37.0682 31.9507 37.0682Z" fill="#1D9A78"/>
<path d="M23.0001 42.7033C19.1476 42.7033 15.5443 40.6524 13.5701 37.3366C13.3593 37.0108 13.1485 36.6275 12.976 36.2058C12.3243 34.845 11.9792 33.2925 11.9792 31.6825C11.9792 25.6066 16.9242 20.6616 23.0001 20.6616C29.0759 20.6616 34.0209 25.6066 34.0209 31.6825C34.0209 33.3116 33.676 34.845 32.986 36.2633C32.8326 36.6275 32.6218 37.0108 32.3918 37.375C30.456 40.6525 26.8526 42.7033 23.0001 42.7033ZM23.0001 23.5366C18.5151 23.5366 14.8542 27.1975 14.8542 31.6825C14.8542 32.8708 15.1034 33.9824 15.5826 34.9983C15.7359 35.3241 15.8701 35.5925 16.0234 35.8416C17.4801 38.3141 20.1442 39.8283 22.9809 39.8283C25.8176 39.8283 28.4817 38.3141 29.9192 35.88C30.0917 35.5925 30.2451 35.3241 30.3601 35.0558C30.8776 34.0016 31.1267 32.8899 31.1267 31.7016C31.1459 27.1974 27.4851 23.5366 23.0001 23.5366Z" fill="#1D9A78"/>
<path d="M21.9074 35.0175C21.5432 35.0175 21.1791 34.8834 20.8916 34.5959L18.994 32.6984C18.4382 32.1425 18.4382 31.2225 18.994 30.6667C19.5499 30.1109 20.4699 30.1109 21.0257 30.6667L21.9458 31.5867L25.0124 28.75C25.6066 28.2134 26.5074 28.2517 27.044 28.8267C27.5807 29.4017 27.5424 30.3217 26.9674 30.8584L22.8849 34.6342C22.5974 34.8834 22.2524 35.0175 21.9074 35.0175Z" fill="#1D9A78"/>
</svg>
