<svg width="49" height="46" viewBox="0 0 49 46" fill="none" xmlns="http://www.w3.org/2000/svg">
<path d="M30.8122 21.7382L11.9375 18.4131V42.9831C11.9377 43.2501 11.9905 43.5143 12.0929 43.7608C12.1952 44.0074 12.3451 44.2313 12.534 44.4199C12.7229 44.6085 12.9471 44.758 13.1938 44.8599C13.4405 44.9619 13.7049 45.0142 13.9718 45.014H46.5409C46.8081 45.0147 47.0728 44.9627 47.3199 44.8609C47.567 44.7592 47.7916 44.6097 47.9808 44.4211C48.1701 44.2325 48.3203 44.0084 48.4229 43.7616C48.5254 43.5149 48.5783 43.2503 48.5786 42.9831V33.9303L30.8122 21.7382Z" fill="#185C37"/>
<path d="M30.8122 0.6792H13.9718C13.7049 0.678976 13.4405 0.731328 13.1938 0.833268C12.9471 0.935208 12.7229 1.08474 12.534 1.27332C12.3451 1.46191 12.1952 1.68585 12.0929 1.93237C11.9905 2.17889 11.9377 2.44316 11.9375 2.71008V11.7629L30.8122 22.8466L40.8063 26.1717L48.5786 22.8466V11.7629L30.8122 0.6792Z" fill="#21A366"/>
<path d="M11.9375 11.7629H30.8122V22.8467H11.9375V11.7629Z" fill="#107C41"/>
<path opacity="0.1" d="M25.446 9.5459H11.9375V37.2552H25.446C25.9843 37.2525 26.4998 37.0378 26.8809 36.6577C27.262 36.2776 27.478 35.7626 27.482 35.2243V11.5768C27.478 11.0385 27.262 10.5235 26.8809 10.1434C26.4998 9.76324 25.9843 9.54857 25.446 9.5459Z" fill="black"/>
<path opacity="0.2" d="M24.3359 10.6545H11.9375V38.3638H24.3359C24.8742 38.3612 25.3897 38.1465 25.7708 37.7663C26.1519 37.3862 26.3679 36.8712 26.3719 36.333V12.6854C26.3679 12.1472 26.1519 11.6322 25.7708 11.252C25.3897 10.8719 24.8742 10.6572 24.3359 10.6545Z" fill="black"/>
<path opacity="0.2" d="M24.3359 10.6545H11.9375V36.1471H24.3359C24.8742 36.1444 25.3897 35.9297 25.7708 35.5496C26.1519 35.1695 26.3679 34.6545 26.3719 34.1162V12.6854C26.3679 12.1472 26.1519 11.6322 25.7708 11.252C25.3897 10.8719 24.8742 10.6572 24.3359 10.6545Z" fill="black"/>
<path opacity="0.2" d="M23.2258 10.6545H11.9375V36.1471H23.2258C23.7641 36.1444 24.2796 35.9297 24.6607 35.5496C25.0418 35.1695 25.2578 34.6545 25.2618 34.1162V12.6854C25.2578 12.1472 25.0418 11.6322 24.6607 11.252C24.2796 10.8719 23.7641 10.6572 23.2258 10.6545Z" fill="black"/>
<path d="M2.86998 10.6545H23.2265C23.7657 10.6541 24.2831 10.8677 24.6649 11.2486C25.0466 11.6294 25.2616 12.1462 25.2625 12.6854V33.0078C25.2616 33.5471 25.0466 34.0639 24.6649 34.4447C24.2831 34.8255 23.7657 35.0392 23.2265 35.0387H2.86998C2.60291 35.0392 2.33838 34.987 2.09149 34.8851C1.8446 34.7833 1.6202 34.6338 1.43112 34.4452C1.24204 34.2566 1.09198 34.0326 0.989521 33.7859C0.88706 33.5393 0.834208 33.2749 0.833984 33.0078V12.6854C0.834208 12.4184 0.88706 12.154 0.989521 11.9073C1.09198 11.6607 1.24204 11.4367 1.43112 11.2481C1.6202 11.0595 1.8446 10.91 2.09149 10.8081C2.33838 10.7063 2.60291 10.6541 2.86998 10.6545Z" fill="url(#paint0_linear_251_10737)"/>
<path d="M7.14111 29.4506L11.4228 22.8276L7.50091 16.2422H10.6504L12.7904 20.4591C12.9882 20.8581 13.1314 21.1548 13.1962 21.3526H13.2252C13.365 21.0321 13.5134 20.7234 13.6686 20.4216L15.9569 16.249H18.8557L14.8332 22.7969L18.9581 29.4557H15.8734L13.4009 24.8329C13.2861 24.6342 13.1885 24.4259 13.1093 24.2105H13.0683C12.9962 24.4204 12.9001 24.6212 12.7819 24.809L10.236 29.4506H7.14111Z" fill="white"/>
<path d="M46.5416 0.679202H30.8113V11.7629H48.5776V2.71008C48.5774 2.44301 48.5246 2.17861 48.4221 1.93198C48.3196 1.68535 48.1696 1.46133 47.9805 1.27272C47.7914 1.08412 47.567 0.93462 47.3201 0.832781C47.0732 0.730941 46.8087 0.678754 46.5416 0.679202Z" fill="#33C481"/>
<path d="M30.8113 22.8467H48.5776V33.9304H30.8113V22.8467Z" fill="#107C41"/>
<defs>
<linearGradient id="paint0_linear_251_10737" x1="5.08672" y1="9.05849" x2="21.0098" y2="36.6348" gradientUnits="userSpaceOnUse">
<stop stop-color="#18884F"/>
<stop offset="0.5" stop-color="#117E43"/>
<stop offset="1" stop-color="#0B6631"/>
</linearGradient>
</defs>
</svg>
