<svg width="85" height="56" viewBox="0 0 85 56" fill="none" xmlns="http://www.w3.org/2000/svg">
<mask id="mask0_251_9939" style="mask-type:luminance" maskUnits="userSpaceOnUse" x="0" y="-1" width="85" height="57">
<path d="M0.515625 -0.00195312H84.5405V55.1002H0.515625V-0.00195312Z" fill="white"/>
</mask>
<g mask="url(#mask0_251_9939)">
<path d="M61.0268 52.6778C49.3915 52.6778 39.9257 43.1682 39.9257 31.4794C39.9257 19.7955 49.3915 10.2859 61.0268 10.2859C72.662 10.2859 82.1279 19.7955 82.1279 31.4794C82.1279 43.1682 72.662 52.6778 61.0268 52.6778ZM82.6921 22.286C81.5052 19.4745 79.8125 16.9499 77.6528 14.7805C75.493 12.611 72.9782 10.9085 70.1764 9.7168C67.647 8.6418 64.9814 8.02891 62.2331 7.89271V5.16874H63.6632C64.4123 5.16874 65.0203 4.55584 65.0203 3.80188V1.36003C65.0203 0.606077 64.4123 -0.00195312 63.6632 -0.00195312H58.3904C57.6413 -0.00195312 57.0332 0.606077 57.0332 1.36003V3.80188C57.0332 4.55584 57.6413 5.16874 58.3904 5.16874H59.8204V7.89271C57.0722 8.02891 54.4066 8.6418 51.8723 9.7168C51.3567 9.93569 50.8557 10.174 50.3595 10.427L26.4128 11.6333L46.8183 12.6597C45.972 13.3066 45.1645 14.0119 44.4008 14.7805C44.0554 15.1258 43.7198 15.4858 43.3988 15.8506L19.7099 17.0472L41.6136 18.1465C40.8061 19.3334 40.1057 20.5981 39.522 21.9212L8.34219 23.0789L38.6513 24.2025C38.1454 25.7737 37.8049 27.3935 37.6346 29.0473L0.515625 30.2439L37.513 31.4356C37.513 31.4502 37.513 31.4648 37.513 31.4794C37.513 33.2257 37.7027 34.9428 38.0676 36.6161L1.85816 37.7835L38.7194 38.9703C38.9139 39.5443 39.128 40.1134 39.3615 40.6728C39.5658 41.1593 39.7846 41.6359 40.0181 42.1029L17.7253 43.2217L41.3461 44.4134C42.1146 45.5857 42.9804 46.6899 43.9533 47.7211L23.0906 48.7718L46.3611 49.9441C48.0344 51.2915 49.8828 52.3957 51.8723 53.242C54.7714 54.4727 57.8504 55.1002 61.0268 55.1002C64.1983 55.1002 67.2773 54.4727 70.1764 53.242C72.9782 52.0552 75.493 50.3527 77.6528 48.1832C79.8125 46.0138 81.5052 43.4892 82.6921 40.6728C83.9179 37.764 84.5405 34.6704 84.5405 31.4794C84.5405 28.2933 83.9179 25.1997 82.6921 22.286Z" fill="#1D9A78"/>
</g>
<path d="M61.0266 29.1397C60.0343 29.1397 59.1879 29.7671 58.862 30.6476L56.0359 31.0416L56.6147 33.9455L59.4895 33.1818C59.8981 33.5467 60.438 33.7704 61.0266 33.7704C62.0432 33.7704 62.9042 33.1089 63.2106 32.1895L79.9923 27.7193L62.8896 30.093C62.4713 29.5142 61.7903 29.1397 61.0266 29.1397Z" fill="#1D9A78"/>
<path d="M61.1049 15.3745C61.4794 15.3745 61.7761 15.0729 61.7761 14.7032V12.0084C61.7761 11.6387 61.4794 11.3372 61.1049 11.3372C60.7352 11.3372 60.4385 11.6387 60.4385 12.0084V14.7032C60.4385 15.0729 60.7352 15.3745 61.1049 15.3745Z" fill="#1D9A78"/>
<path d="M69.0963 17.5687C69.2033 17.6319 69.32 17.6611 69.4319 17.6611C69.6654 17.6611 69.8891 17.5395 70.0156 17.3254L71.3533 14.9906C71.5381 14.6696 71.4311 14.2561 71.1101 14.0713C70.789 13.8864 70.3804 13.9983 70.1956 14.3193L68.8531 16.6493C68.6682 16.9752 68.7801 17.3838 69.0963 17.5687Z" fill="#1D9A78"/>
<path d="M74.9283 23.483C75.0499 23.7019 75.2786 23.8235 75.5072 23.8235C75.6239 23.8235 75.7358 23.7943 75.8428 23.7311L78.1631 22.3837C78.4841 22.1989 78.596 21.7854 78.4111 21.4644C78.2263 21.1433 77.8177 21.0314 77.4967 21.2163L75.1715 22.5637C74.8505 22.7534 74.7435 23.162 74.9283 23.483Z" fill="#1D9A78"/>
<path d="M77.0303 31.5335C77.0303 31.9081 77.3319 32.2096 77.7015 32.2096H80.3817C80.7514 32.2096 81.053 31.9081 81.053 31.5335C81.053 31.1638 80.7514 30.8622 80.3817 30.8622H77.7015C77.3319 30.8622 77.0303 31.1638 77.0303 31.5335Z" fill="#1D9A78"/>
<path d="M78.0859 40.6641L75.7656 39.3167C75.4446 39.1318 75.0311 39.2437 74.8463 39.5648C74.6614 39.8858 74.7733 40.2993 75.0944 40.4841L77.4146 41.8315C77.5216 41.8899 77.6335 41.9191 77.7502 41.9191C77.9789 41.9191 78.2075 41.7974 78.3291 41.5834C78.5139 41.2624 78.4069 40.8489 78.0859 40.6641Z" fill="#1D9A78"/>
<path d="M69.8748 45.6649C69.69 45.3439 69.2814 45.232 68.9603 45.4217C68.6393 45.6065 68.5274 46.0151 68.7123 46.341L70.0548 48.671C70.1764 48.8899 70.405 49.0067 70.6336 49.0067C70.7504 49.0067 70.8671 48.9775 70.9693 48.9191C71.2903 48.7343 71.4022 48.3208 71.2173 47.9998L69.8748 45.6649Z" fill="#1D9A78"/>
<path d="M60.9447 47.5326C60.575 47.5326 60.2783 47.8342 60.2783 48.2039V50.8986C60.2783 51.2732 60.575 51.5748 60.9447 51.5748C61.3144 51.5748 61.616 51.2732 61.616 50.8986V48.2039C61.616 47.8342 61.3144 47.5326 60.9447 47.5326Z" fill="#1D9A78"/>
<path d="M52.9522 45.3391C52.6311 45.1543 52.2225 45.2613 52.0377 45.5872L50.7 47.9172C50.5103 48.2382 50.6222 48.6517 50.9432 48.8365C51.0503 48.8997 51.1621 48.9289 51.2789 48.9289C51.5075 48.9289 51.7361 48.8073 51.8577 48.5884L53.2002 46.2584C53.3851 45.9374 53.2732 45.5239 52.9522 45.3391Z" fill="#1D9A78"/>
<path d="M46.2104 39.1744L43.8853 40.5218C43.5691 40.7066 43.4573 41.1201 43.6421 41.4411C43.7686 41.66 43.9923 41.7816 44.221 41.7816C44.3377 41.7816 44.4544 41.7476 44.5566 41.6892L46.8817 40.3418C47.1979 40.157 47.3098 39.7435 47.1249 39.4225C46.9401 39.1014 46.5315 38.9896 46.2104 39.1744Z" fill="#1D9A78"/>
<path d="M45.0188 31.373C45.0188 31.0033 44.7221 30.7017 44.3524 30.7017H41.6674C41.2977 30.7017 41.001 31.0033 41.001 31.373C41.001 31.7427 41.2977 32.0491 41.6674 32.0491H44.3524C44.7221 32.0491 45.0188 31.7427 45.0188 31.373Z" fill="#1D9A78"/>
<path d="M46.9592 22.4284L44.6389 21.081C44.3179 20.8913 43.9093 21.0032 43.7244 21.3242C43.5347 21.6501 43.6466 22.0587 43.9677 22.2436L46.2879 23.591C46.3949 23.6542 46.5117 23.6834 46.6235 23.6834C46.857 23.6834 47.0808 23.5618 47.2072 23.3477C47.3921 23.0218 47.2802 22.6132 46.9592 22.4284Z" fill="#1D9A78"/>
<path d="M51.9988 14.2358C51.814 13.9148 51.4054 13.8029 51.0844 13.9926C50.7633 14.1775 50.6514 14.5861 50.8363 14.912L52.1788 17.2419C52.3004 17.4608 52.529 17.5776 52.7577 17.5776C52.8744 17.5776 52.9863 17.5484 53.0933 17.49C53.4143 17.3052 53.5213 16.8917 53.3365 16.5707L51.9988 14.2358Z" fill="#1D9A78"/>
</svg>
