<svg width="52" height="52" viewBox="0 0 52 52" fill="none" xmlns="http://www.w3.org/2000/svg">
<path d="M40.8928 0.154541L51.1876 10.886V51.695H12.7302V51.8282H51.319V11.021L40.8928 0.154541Z" fill="#909090"/>
<path d="M40.7662 0.0212402H12.5999V51.6949H51.1886V10.8877L40.7662 0.0212402Z" fill="white"/>
<path d="M12.3172 2.79663H0.494141V15.4283H37.6841V2.79663H12.3172Z" fill="#7A7B7C"/>
<path d="M37.8806 15.2134H0.733154V2.57251H37.8806V15.2134Z" fill="#DD2025"/>
<path d="M13.0496 4.70966H10.6313V13.5908H12.5334V10.5953L12.9534 10.6193C13.3615 10.6123 13.7658 10.5392 14.1505 10.4029C14.4878 10.2869 14.7981 10.1037 15.0627 9.86444C15.3319 9.63653 15.5441 9.34889 15.6825 9.02443C15.8681 8.48508 15.9344 7.91188 15.8768 7.34441C15.8652 6.93903 15.7942 6.53756 15.6659 6.15285C15.5491 5.87514 15.3757 5.62479 15.1569 5.41773C14.938 5.21068 14.6785 5.05145 14.3948 4.95019C14.1494 4.86137 13.896 4.79692 13.638 4.75776C13.4427 4.72762 13.2454 4.71155 13.0478 4.70966M12.6981 8.95412H12.5334V6.21576H12.8905C13.0481 6.20439 13.2062 6.22859 13.3532 6.28655C13.5002 6.34452 13.6323 6.43477 13.7398 6.55065C13.9624 6.84857 14.0813 7.2112 14.0784 7.58309C14.0784 8.03825 14.0784 8.45086 13.6676 8.74134C13.3717 8.9041 13.0349 8.97923 12.6981 8.95412ZM19.4903 4.6856C19.285 4.6856 19.0851 4.70041 18.9445 4.70596L18.5041 4.71706H17.061V13.5982H18.7595C19.4086 13.616 20.0549 13.506 20.6615 13.2745C21.1498 13.0808 21.5822 12.7686 21.9197 12.366C22.2479 11.9598 22.4834 11.4868 22.6098 10.9801C22.7552 10.4063 22.8261 9.81618 22.8208 9.22426C22.8567 8.52516 22.8026 7.82434 22.6598 7.13903C22.5243 6.63458 22.2706 6.16967 21.9197 5.7828C21.6444 5.47041 21.3073 5.21842 20.9298 5.0427C20.6056 4.89268 20.2646 4.7821 19.914 4.71336C19.7746 4.69033 19.6335 4.6798 19.4922 4.6819M19.1554 11.9663H18.9704V6.29717H18.9945C19.3759 6.25328 19.7619 6.32211 20.1046 6.49514C20.3556 6.69558 20.5602 6.94808 20.7041 7.23524C20.8594 7.53745 20.949 7.86915 20.9668 8.20847C20.9835 8.61553 20.9668 8.94857 20.9668 9.22426C20.9744 9.54183 20.9539 9.85945 20.9058 10.1734C20.8487 10.4958 20.7433 10.8077 20.5931 11.0986C20.423 11.369 20.1933 11.5968 19.9214 11.7646C19.6932 11.9123 19.4228 11.9812 19.1517 11.9608M28.551 4.71706H24.0549V13.5982H25.9569V10.0754H28.3623V8.42495H25.9569V6.36748H28.5473V4.71706" fill="#464648"/>
<path d="M36.6014 33.7974C36.6014 33.7974 42.5 32.728 42.5 34.7429C42.5 36.7578 38.8458 35.9381 36.6014 33.7974ZM32.2404 33.951C31.3032 34.158 30.3899 34.4612 29.515 34.8557L30.2551 33.1905C30.9952 31.5253 31.763 29.255 31.763 29.255C32.6461 30.7414 33.6737 32.1371 34.8307 33.4218C33.9582 33.5519 33.0934 33.7298 32.2404 33.9547V33.951ZM29.9054 21.9244C29.9054 20.1685 30.4734 19.6893 30.9156 19.6893C31.3578 19.6893 31.8555 19.902 31.8722 21.4266C31.7281 22.9597 31.4071 24.4709 30.9156 25.9301C30.2423 24.705 29.8939 23.3279 29.9035 21.9299L29.9054 21.9244ZM21.3036 41.3816C19.494 40.2992 25.0984 36.9669 26.1142 36.8596C26.1087 36.8614 23.1982 42.5139 21.3036 41.3816ZM44.2226 34.9816C44.2041 34.7965 44.0375 32.7483 40.3926 32.8353C38.8733 32.8108 37.3547 32.9179 35.8539 33.1554C34.4001 31.6907 33.1482 30.0387 32.1312 28.243C32.7719 26.3916 33.1596 24.4623 33.2839 22.5072C33.2303 20.2869 32.6992 19.0139 30.997 19.0324C29.2948 19.0509 29.0468 20.5404 29.2707 22.757C29.49 24.2465 29.9037 25.7009 30.5011 27.0829C30.5011 27.0829 29.7148 29.5307 28.6749 31.9657C27.6351 34.4006 26.9246 35.6772 26.9246 35.6772C25.1164 36.2659 23.4142 37.1404 21.8827 38.2676C20.3581 39.6867 19.7383 40.7765 20.5413 41.8663C21.2333 42.8063 23.6552 43.019 25.82 40.1826C26.9702 38.7176 28.0211 37.1772 28.9654 35.5718C28.9654 35.5718 32.2663 34.667 33.2932 34.4191C34.32 34.1711 35.5616 33.975 35.5616 33.975C35.5616 33.975 38.5756 37.0076 41.4824 36.9003C44.3891 36.7929 44.2485 35.1629 44.23 34.9853" fill="#DD2025"/>
<path d="M40.6206 0.16333V11.0298H51.043L40.6206 0.16333Z" fill="#909090"/>
<path d="M40.7666 0.0212402V10.8877H51.189L40.7666 0.0212402Z" fill="white"/>
<path d="M12.909 4.56757H10.4907V13.4488H12.4002V10.4551L12.822 10.4791C13.2301 10.4721 13.6344 10.399 14.0191 10.2626C14.3564 10.1466 14.6667 9.96341 14.9313 9.72421C15.1985 9.49568 15.4088 9.20808 15.5456 8.88419C15.7312 8.34484 15.7975 7.77164 15.7399 7.20417C15.7283 6.79879 15.6572 6.39732 15.5289 6.01261C15.4121 5.7349 15.2388 5.48455 15.02 5.27749C14.8011 5.07044 14.5416 4.91121 14.2578 4.80995C14.0114 4.72027 13.7566 4.65519 13.4974 4.61567C13.302 4.58553 13.1048 4.56946 12.9071 4.56757M12.5574 8.81203H12.3928V6.07367H12.7517C12.9093 6.0623 13.0675 6.0865 13.2145 6.14446C13.3615 6.20243 13.4936 6.29269 13.601 6.40856C13.8236 6.70648 13.9425 7.06911 13.9396 7.441C13.9396 7.89616 13.9396 8.30877 13.5288 8.59926C13.2329 8.76201 12.8961 8.83529 12.5593 8.81018M19.3497 4.54351C19.1443 4.54351 18.9445 4.55832 18.8039 4.56387L18.3691 4.57497H16.9259V13.4562H18.6244C19.2735 13.4739 19.9198 13.3639 20.5265 13.1324C21.0148 12.9387 21.4472 12.6265 21.7846 12.2239C22.1128 11.8177 22.3483 11.3447 22.4748 10.8381C22.6201 10.2642 22.691 9.67409 22.6857 9.08217C22.7216 8.38307 22.6675 7.68225 22.5247 6.99694C22.3893 6.4925 22.1356 6.02758 21.7846 5.64071C21.5093 5.32832 21.1723 5.07633 20.7948 4.90061C20.4706 4.75059 20.1295 4.64002 19.779 4.57127C19.6396 4.54824 19.4984 4.53771 19.3571 4.53981M19.0204 11.8242H18.8353V6.15508H18.8594C19.2408 6.11119 19.6268 6.18002 19.9695 6.35306C20.2205 6.55349 20.4251 6.80599 20.569 7.09315C20.7244 7.39536 20.8139 7.72706 20.8318 8.06638C20.8484 8.47344 20.8318 8.80648 20.8318 9.08217C20.8393 9.39974 20.8189 9.71736 20.7707 10.0313C20.7137 10.3537 20.6082 10.6656 20.458 10.9565C20.288 11.2269 20.0582 11.4548 19.7864 11.6226C19.5581 11.7702 19.2878 11.8391 19.0167 11.8187M28.4104 4.57497H23.9143V13.4562H25.8163V9.93328H28.2216V8.28286H25.8163V6.22539H28.4067V4.57497" fill="white"/>
</svg>
