<svg width="55" height="61" viewBox="0 0 55 61" fill="none" xmlns="http://www.w3.org/2000/svg">
<path fill-rule="evenodd" clip-rule="evenodd" d="M9.50189 43.2484L14.6219 52.3308L15.1181 52.0422C15.3574 51.905 15.6072 51.8733 15.8746 51.9437L29.6723 55.6526C31.6851 56.1945 32.8288 55.8391 34.6093 54.9277L53.5622 43.2133C54.4912 42.6362 54.6038 41.0526 54.0549 40.1624C52.8232 38.1707 49.3606 39.8703 47.9496 40.6937L37.4702 46.8237C36.6609 47.3022 35.7987 47.6189 34.8733 47.7773C32.2833 48.2136 28.3668 46.982 26.0478 46.3169C25.3018 46.1023 24.5417 45.8841 23.7992 45.6871C23.6726 45.6519 23.5564 45.592 23.4509 45.5111C23.3453 45.4302 23.2573 45.3316 23.1905 45.219C23.1271 45.1029 23.0849 44.9798 23.0673 44.846C23.0497 44.7158 23.0567 44.5856 23.0919 44.4554C23.1271 44.3252 23.1834 44.2091 23.2644 44.1035C23.3453 43.998 23.4438 43.91 23.5564 43.8431C23.6726 43.7763 23.7957 43.7341 23.9259 43.7165C24.0596 43.6989 24.1898 43.7094 24.3165 43.7446C25.1223 43.9593 25.8648 44.1739 26.5968 44.3815C28.1345 44.8249 29.6195 45.2507 31.1186 45.5604C32.2517 45.6976 33.1807 45.3528 33.4939 44.1739C33.7789 43.1112 33.1103 42.1118 32.1109 41.7635C28.9615 41.1828 25.9035 40.0744 23.5001 39.2017C20.041 37.9454 19.1296 37.6534 15.7163 39.638L9.50189 43.2484ZM42.446 27.3078C41.992 28.008 41.4044 28.5535 40.676 28.9546C39.9475 29.3523 39.1699 29.5528 38.3429 29.5528L40.2678 34.0465L42.8295 29.9012L47.5906 30.8795L44.9514 24.7319L44.0576 25.1155C43.8817 25.1823 43.748 25.2949 43.6494 25.4568L42.446 27.3078ZM21.438 32.1709L26.2238 31.3299L28.6659 35.5455L31.474 29.493C31.0025 29.5669 30.5344 29.5739 30.0629 29.5141C29.5914 29.4508 29.1409 29.3241 28.7046 29.1306C28.2718 28.937 27.8741 28.6837 27.5117 28.374C27.1528 28.0643 26.8431 27.7089 26.5827 27.3078L25.3792 25.4568C25.2807 25.2949 25.147 25.1823 24.971 25.1155L24.7529 25.0205L21.438 32.1709ZM29.3802 14.7488C29.2887 14.6537 29.2184 14.5447 29.1691 14.4215C29.1198 14.2983 29.0952 14.1716 29.0987 14.0379C29.0987 13.9077 29.1234 13.781 29.1761 13.6579C29.2254 13.5347 29.2993 13.4292 29.3908 13.3341C29.4858 13.2427 29.5914 13.1688 29.7145 13.1195C29.8342 13.0667 29.9609 13.0421 30.0946 13.0386C30.2248 13.0386 30.3515 13.0632 30.4746 13.1125C30.5978 13.1617 30.7034 13.2321 30.7984 13.3236L32.7056 15.2379L38.2655 10.1742C38.364 10.0827 38.4731 10.0158 38.5998 9.97007C38.723 9.92784 38.8532 9.90672 38.9869 9.91376C39.1171 9.9208 39.2438 9.95247 39.3634 10.0088C39.483 10.0651 39.5886 10.1425 39.6801 10.241C39.7681 10.3396 39.8349 10.4522 39.8807 10.5753C39.9264 10.702 39.944 10.8322 39.937 10.9624C39.9335 11.0961 39.9018 11.2228 39.8455 11.346C39.7892 11.4656 39.7118 11.5712 39.6132 11.6591L33.3848 17.3352C33.2898 17.4302 33.1842 17.5041 33.061 17.5533C32.9379 17.6061 32.8077 17.6343 32.6739 17.6343C32.5402 17.6343 32.4135 17.6096 32.2904 17.5568C32.1637 17.5076 32.0546 17.4337 31.9631 17.3387L29.3802 14.7488ZM36.2703 0.599193L38.0332 1.9223C38.5013 2.28475 39.0326 2.47829 39.6238 2.50293L41.8231 2.62609C42.1398 2.64368 42.446 2.70702 42.7416 2.82315C43.0371 2.93927 43.3046 3.09762 43.5474 3.30172C43.7902 3.50934 43.9943 3.7451 44.1597 4.01606C44.3251 4.29053 44.4412 4.57909 44.5116 4.89227L45.0113 7.04585C45.1415 7.62295 45.423 8.1156 45.8593 8.51675L47.4675 10.0299C47.6997 10.2445 47.8897 10.4944 48.0446 10.7724C48.1959 11.0504 48.2979 11.346 48.3542 11.6591C48.4105 11.9758 48.4141 12.289 48.3648 12.6022C48.3155 12.9154 48.2205 13.2145 48.0762 13.4995L47.0804 15.4701C46.8059 15.998 46.7109 16.5575 46.7883 17.1451L47.0487 19.3409C47.0874 19.6576 47.0769 19.9708 47.017 20.284C46.9537 20.5972 46.8446 20.8893 46.6863 21.1637C46.5244 21.4417 46.3273 21.6845 46.0916 21.8921C45.8523 22.1033 45.5848 22.2687 45.2928 22.3918L43.2694 23.2645C42.7204 23.4897 42.2911 23.8557 41.9709 24.3554L40.7674 26.2063C40.595 26.4738 40.3874 26.7095 40.1376 26.9066C39.8912 27.1072 39.6168 27.2585 39.3212 27.3676C39.0221 27.4767 38.7159 27.5365 38.3992 27.5435C38.0825 27.5506 37.7729 27.5048 37.4702 27.4098L35.3624 26.7729C34.7958 26.5934 34.2328 26.5934 33.6663 26.7729L31.5584 27.4098C31.2558 27.5048 30.9462 27.5506 30.6295 27.5435C30.3127 27.5365 30.0066 27.4767 29.7075 27.3676C29.4119 27.2585 29.1374 27.1072 28.8911 26.9066C28.6413 26.7095 28.4336 26.4738 28.2612 26.2063L27.0578 24.3554C26.7375 23.8557 26.3082 23.4897 25.7593 23.2645L23.7359 22.3918C23.4438 22.2687 23.1764 22.1033 22.9406 21.8921C22.7013 21.6845 22.5043 21.4417 22.3459 21.1637C22.1876 20.8893 22.075 20.5972 22.0116 20.284C21.9518 19.9708 21.9412 19.6576 21.98 19.3409L22.2404 17.1451C22.3213 16.5575 22.2228 15.998 21.9483 15.4736L20.956 13.4995C20.8082 13.2145 20.7132 12.9189 20.6639 12.6022C20.6181 12.289 20.6217 11.9758 20.6744 11.6627C20.7307 11.346 20.8328 11.0504 20.9841 10.7724C21.1389 10.4944 21.329 10.2445 21.5647 10.0299L23.1694 8.51675C23.6057 8.1156 23.8907 7.62647 24.0174 7.04585L24.5206 4.89227C24.5875 4.57909 24.7071 4.29053 24.869 4.01958C25.0344 3.7451 25.2385 3.50934 25.4813 3.30172C25.7241 3.09762 25.995 2.93927 26.2871 2.82315C26.5827 2.70702 26.8888 2.64368 27.2055 2.62609L29.4049 2.50293C29.996 2.47829 30.5274 2.28475 30.9989 1.9223L32.7619 0.599193C33.0118 0.405652 33.2898 0.257858 33.5889 0.155809C33.888 0.0537605 34.1976 0.000976562 34.5143 0.000976562C34.831 0.000976562 35.1407 0.0537605 35.4398 0.155809C35.7424 0.257858 36.0169 0.405652 36.2703 0.599193ZM34.5143 5.54679C33.9759 5.54679 33.4446 5.59957 32.9167 5.70514C32.3889 5.81071 31.8751 5.96554 31.379 6.17316C30.8828 6.38077 30.4113 6.63413 29.9644 6.93324C29.514 7.23235 29.1022 7.57368 28.7222 7.95724C28.3422 8.33729 28.0008 8.75252 27.7017 9.20294C27.4026 9.65336 27.1528 10.1249 26.9451 10.6246C26.7411 11.1243 26.5827 11.638 26.4806 12.1659C26.3751 12.6972 26.3223 13.2321 26.3223 13.7705C26.3223 14.3124 26.3751 14.8473 26.4806 15.3751C26.5827 15.9065 26.7411 16.4202 26.9451 16.9199C27.1528 17.4196 27.4026 17.8911 27.7017 18.3416C28.0008 18.792 28.3422 19.2072 28.7222 19.5873C29.1022 19.9708 29.514 20.3086 29.9644 20.6113C30.4113 20.9104 30.8828 21.1637 31.379 21.3714C31.8751 21.5754 32.3889 21.7338 32.9167 21.8394C33.4446 21.9449 33.9759 21.9977 34.5143 21.9977C35.0527 21.9977 35.5841 21.9449 36.1119 21.8394C36.6398 21.7338 37.1535 21.5754 37.6497 21.3714C38.1459 21.1637 38.6174 20.9104 39.0643 20.6113C39.5112 20.3086 39.9264 19.9708 40.3065 19.5873C40.6865 19.2072 41.0278 18.792 41.327 18.3416C41.6225 17.8911 41.8759 17.4196 42.0835 16.9199C42.2876 16.4202 42.4425 15.9065 42.548 15.3751C42.6536 14.8473 42.7064 14.3124 42.7064 13.7705C42.7064 13.2321 42.6536 12.6972 42.548 12.1659C42.4425 11.638 42.2876 11.1243 42.0835 10.6246C41.8759 10.1249 41.6225 9.65336 41.327 9.20294C41.0278 8.75252 40.6865 8.33729 40.3065 7.95724C39.9264 7.57368 39.5112 7.23235 39.0643 6.93324C38.6174 6.63413 38.1459 6.38077 37.6497 6.17316C37.1535 5.96554 36.6398 5.81071 36.1119 5.70514C35.5841 5.59957 35.0527 5.54679 34.5143 5.54679ZM6.41931 41.8655L14.7169 56.5851C14.8154 56.7576 14.8753 56.9405 14.8964 57.1341C14.921 57.3311 14.9069 57.5247 14.8542 57.7147C14.8014 57.9047 14.7169 58.0772 14.5938 58.232C14.4741 58.3868 14.3298 58.5135 14.1574 58.612L11.3352 60.2131C11.1663 60.3117 10.9833 60.3715 10.7863 60.3961C10.5927 60.4172 10.3992 60.4032 10.2127 60.3504C10.0227 60.2976 9.85026 60.2131 9.69543 60.09C9.54059 59.9703 9.41391 59.8225 9.3189 59.6536L1.0213 44.934C0.92277 44.7616 0.862949 44.5786 0.841835 44.3815C0.817202 44.188 0.831278 43.9945 0.884062 43.8044C0.936846 43.6144 1.0213 43.442 1.14094 43.2872C1.2641 43.1323 1.40838 43.0056 1.58081 42.9071L4.39946 41.3025C4.57189 41.2075 4.75487 41.1477 4.94841 41.123C5.14547 41.0984 5.33549 41.116 5.52551 41.1652C5.71553 41.218 5.88796 41.306 6.04279 41.4292C6.19762 41.5488 6.32079 41.6931 6.41931 41.8655ZM4.51558 44.0719C4.38538 44.093 4.26222 44.1352 4.1461 44.2056C4.02997 44.2725 3.93496 44.3604 3.85403 44.4695C3.77309 44.5751 3.71679 44.6947 3.68512 44.8249C3.65345 44.9551 3.64641 45.0888 3.664 45.219C3.68512 45.3528 3.72735 45.4759 3.79772 45.592C3.86458 45.7082 3.95256 45.8032 4.06164 45.8841C4.16721 45.965 4.28685 46.0214 4.41705 46.053C4.54725 46.0882 4.67745 46.0953 4.80765 46.0741C4.94137 46.0565 5.06453 46.0108 5.18066 45.9439C5.29326 45.8736 5.39179 45.7856 5.46921 45.6765C5.55014 45.5709 5.60645 45.4513 5.63812 45.3211C5.67331 45.1909 5.68034 45.0607 5.65923 44.927C5.64163 44.7933 5.59589 44.6701 5.52903 44.554C5.45865 44.4414 5.37068 44.3428 5.26511 44.2619C5.15602 44.181 5.0399 44.1247 4.9097 44.093C4.7795 44.0613 4.6493 44.0543 4.51558 44.0719Z" fill="#1D9A78"/>
</svg>
