<svg width="45" height="49" viewBox="0 0 45 49" fill="none" xmlns="http://www.w3.org/2000/svg">
<path fill-rule="evenodd" clip-rule="evenodd" d="M21.1141 0.310003C22.0787 -0.0509141 23.1327 -0.097966 24.1256 0.175559L24.5461 0.310003L41.6572 6.72667C42.5248 7.052 43.2821 7.61719 43.8408 8.35639C44.3995 9.09558 44.7367 9.97833 44.813 10.9018L44.8301 11.3051V24.4147C44.83 28.3757 43.7605 32.2632 41.7344 35.6669C39.7084 39.0706 36.801 41.8641 33.3192 43.7527L32.669 44.0925L24.4703 48.1918C24.0189 48.4172 23.5258 48.547 23.0219 48.5731C22.518 48.5991 22.0141 48.5209 21.5419 48.3433L21.1899 48.1918L12.9912 44.0925C9.44824 42.3209 6.44931 39.6257 4.31098 36.2913C2.17265 32.9569 0.974253 29.107 0.842301 25.148L0.830078 24.4147V11.3051C0.830092 10.379 1.09317 9.47191 1.58867 8.68949C2.08418 7.90706 2.79173 7.28148 3.62897 6.88556L4.00297 6.72667L21.1141 0.310003ZM31.2219 16.0376L19.9823 27.2771L15.6605 22.9553C15.2018 22.497 14.5799 22.2396 13.9314 22.2398C13.283 22.2401 12.6612 22.4979 12.2029 22.9566C11.7445 23.4152 11.4871 24.0372 11.4874 24.6856C11.4876 25.3341 11.7454 25.9559 12.2041 26.4142L18.0805 32.2907C18.3302 32.5405 18.6267 32.7387 18.953 32.8739C19.2793 33.0091 19.6291 33.0787 19.9823 33.0787C20.3355 33.0787 20.6853 33.0091 21.0116 32.8739C21.3379 32.7387 21.6344 32.5405 21.8841 32.2907L34.6783 19.494C34.9118 19.2685 35.098 18.9988 35.2261 18.7006C35.3542 18.4023 35.4216 18.0816 35.4245 17.757C35.4273 17.4324 35.3654 17.1105 35.2425 16.8101C35.1196 16.5097 34.9381 16.2368 34.7086 16.0073C34.4791 15.7777 34.2062 15.5962 33.9057 15.4733C33.6053 15.3504 33.2834 15.2886 32.9589 15.2914C32.6343 15.2942 32.3135 15.3616 32.0153 15.4898C31.7171 15.6179 31.4473 15.8041 31.2219 16.0376Z" fill="#1D9A78"/>
</svg>
