<svg width="49" height="46" viewBox="0 0 49 46" fill="none" xmlns="http://www.w3.org/2000/svg">
<path d="M46.5426 0.718265H13.9718C13.7049 0.718041 13.4405 0.770393 13.1938 0.872333C12.9471 0.974273 12.7229 1.1238 12.534 1.31239C12.3451 1.50097 12.1952 1.72492 12.0929 1.97144C11.9905 2.21795 11.9377 2.48222 11.9375 2.74914V11.802L30.8122 17.3438L48.5786 11.802V2.74914C48.5783 2.48208 48.5255 2.21767 48.423 1.97104C48.3206 1.72441 48.1705 1.50039 47.9814 1.31178C47.7923 1.12318 47.5679 0.973683 47.3211 0.871843C47.0742 0.770004 46.8096 0.717816 46.5426 0.718265Z" fill="#41A5EE"/>
<path d="M48.5786 11.802H11.9375V22.8857L30.8122 26.2108L48.5786 22.8857V11.802Z" fill="#2B7CD3"/>
<path d="M11.9375 22.8857V33.9695L29.7021 36.1862L48.5786 33.9695V22.8857H11.9375Z" fill="#185ABD"/>
<path d="M13.9718 45.0532H46.5409C46.8081 45.0539 47.0728 45.0019 47.3199 44.9001C47.567 44.7984 47.7916 44.6489 47.9808 44.4603C48.1701 44.2717 48.3203 44.0476 48.4229 43.8008C48.5254 43.5541 48.5783 43.2895 48.5786 43.0223V33.9695H11.9375V43.0223C11.9377 43.2892 11.9905 43.5535 12.0929 43.8C12.1952 44.0465 12.3451 44.2705 12.534 44.4591C12.7229 44.6477 12.9471 44.7972 13.1938 44.8991C13.4405 45.0011 13.7049 45.0534 13.9718 45.0532Z" fill="#103F91"/>
<path opacity="0.1" d="M25.446 9.58521H11.9375V37.2945H25.446C25.9843 37.2918 26.4998 37.0772 26.8809 36.697C27.262 36.3169 27.478 35.8019 27.482 35.2636V11.6161C27.478 11.0778 27.262 10.5628 26.8809 10.1827C26.4998 9.80255 25.9843 9.58788 25.446 9.58521Z" fill="black"/>
<path opacity="0.2" d="M24.3359 10.6936H11.9375V38.4029H24.3359C24.8742 38.4002 25.3897 38.1856 25.7708 37.8054C26.1519 37.4253 26.3679 36.9103 26.3719 36.372V12.7245C26.3679 12.1862 26.1519 11.6712 25.7708 11.2911C25.3897 10.9109 24.8742 10.6963 24.3359 10.6936Z" fill="black"/>
<path opacity="0.2" d="M24.3359 10.6936H11.9375V36.1861H24.3359C24.8742 36.1835 25.3897 35.9688 25.7708 35.5887C26.1519 35.2085 26.3679 34.6935 26.3719 34.1553V12.7245C26.3679 12.1862 26.1519 11.6712 25.7708 11.2911C25.3897 10.9109 24.8742 10.6963 24.3359 10.6936Z" fill="black"/>
<path opacity="0.2" d="M23.2258 10.6936H11.9375V36.1861H23.2258C23.7641 36.1835 24.2796 35.9688 24.6607 35.5887C25.0418 35.2085 25.2578 34.6935 25.2618 34.1553V12.7245C25.2578 12.1862 25.0418 11.6712 24.6607 11.2911C24.2796 10.9109 23.7641 10.6963 23.2258 10.6936Z" fill="black"/>
<path d="M2.86998 10.6936H23.2265C23.7657 10.6932 24.2831 10.9068 24.6649 11.2876C25.0466 11.6684 25.2616 12.1853 25.2625 12.7245V33.0469C25.2616 33.5861 25.0466 34.1029 24.6649 34.4838C24.2831 34.8646 23.7657 35.0782 23.2265 35.0778H2.86998C2.60291 35.0782 2.33838 35.026 2.09149 34.9242C1.8446 34.8224 1.6202 34.6729 1.43112 34.4843C1.24204 34.2957 1.09198 34.0716 0.989521 33.825C0.88706 33.5784 0.834208 33.314 0.833984 33.0469V12.7245C0.834208 12.4574 0.88706 12.193 0.989521 11.9464C1.09198 11.6998 1.24204 11.4757 1.43112 11.2871C1.6202 11.0985 1.8446 10.949 2.09149 10.8472C2.33838 10.7453 2.60291 10.6932 2.86998 10.6936Z" fill="url(#paint0_linear_251_10712)"/>
<path d="M9.18844 26.2758C9.22766 26.5896 9.25494 26.8624 9.26688 27.096H9.31462C9.33168 26.8743 9.36919 26.6066 9.42546 26.2946C9.48173 25.9825 9.53118 25.7182 9.57722 25.5017L11.7172 16.2817H14.4865L16.7032 25.3635C16.8323 25.9253 16.9246 26.4949 16.9794 27.0687H17.017C17.0577 26.5101 17.1346 25.9548 17.2472 25.4062L19.0188 16.2698H21.5374L18.4271 29.4816H15.4823L13.373 20.7408C13.3116 20.4884 13.2422 20.1599 13.1649 19.7552C13.0876 19.3505 13.0399 19.0549 13.0217 18.8685H12.9859C12.962 19.0833 12.9143 19.4022 12.8427 19.8251C12.771 20.2497 12.7148 20.5617 12.6721 20.7664L10.689 29.4867H7.6947L4.56738 16.2817H7.12516L9.05373 25.5204C9.11129 25.7698 9.15625 26.0219 9.18844 26.2758Z" fill="white"/>
<defs>
<linearGradient id="paint0_linear_251_10712" x1="5.08672" y1="9.09755" x2="21.0098" y2="36.6738" gradientUnits="userSpaceOnUse">
<stop stop-color="#2368C4"/>
<stop offset="0.5" stop-color="#1A5DBE"/>
<stop offset="1" stop-color="#1146AC"/>
</linearGradient>
</defs>
</svg>
