<svg width="66" height="45" viewBox="0 0 66 45" fill="none" xmlns="http://www.w3.org/2000/svg">
<path d="M34.2904 7.92202V0.65628C34.2904 0.295295 33.9957 0 33.6347 0H32.6193C32.2589 0 31.9636 0.295295 31.9636 0.65628V7.92202H34.2904ZM42.2327 10.0628C42.2327 10.5827 41.8078 11.0082 41.2884 11.0082H24.9656C24.4468 11.0082 24.0214 10.5827 24.0214 10.0628C24.0214 9.54276 24.4468 9.11732 24.9656 9.11732H25.6169C25.6366 6.90721 26.6268 4.92732 28.188 3.57669V7.56042C28.188 7.6433 28.2549 7.71021 28.3372 7.71021C28.4201 7.71021 28.4876 7.6433 28.4876 7.56042V3.45023C28.4876 3.41523 28.4747 3.38331 28.4539 3.35752C29.2145 2.75834 30.0942 2.3022 31.0526 2.02962C31.0526 2.02962 31.3196 1.96638 31.7524 1.90622V8.13382H34.5022V1.89026C34.7349 1.92464 34.97 1.97007 35.2021 2.02962C36.1567 2.30097 37.0334 2.75466 37.7916 3.35016C37.767 3.37656 37.7523 3.41155 37.7523 3.45023V7.56042C37.7523 7.6433 37.8192 7.71021 37.9021 7.71021C37.9843 7.71021 38.0513 7.6433 38.0513 7.56042V3.56442C39.621 4.91565 40.618 6.90107 40.6377 9.11732H41.2884C41.8078 9.11732 42.2327 9.54276 42.2327 10.0628ZM34.7999 37.9777L34.3125 29.1753H32.1411L31.7831 38.0213L27.7129 24.4236L28.2715 23.154C28.3317 23.2295 28.3968 23.3044 28.4661 23.3811C28.4931 23.4112 28.5226 23.4413 28.5508 23.4714C28.6079 23.5321 28.6663 23.5935 28.7277 23.6549C28.7534 23.6801 28.7792 23.7059 28.8056 23.7311C28.8732 23.7967 28.9425 23.8624 29.0144 23.9281C29.0389 23.9502 29.0622 23.9723 29.0874 23.995C29.1832 24.0816 29.2814 24.1682 29.3821 24.2535C29.3913 24.2609 29.4005 24.2688 29.4097 24.2768C29.5049 24.3566 29.6013 24.4371 29.6995 24.5156C29.7222 24.5341 29.7449 24.5525 29.7676 24.5709C29.8659 24.6489 29.9635 24.7262 30.0623 24.8017C30.0703 24.8079 30.0783 24.814 30.0863 24.8208C30.3183 24.9982 30.5498 25.1689 30.7739 25.3285C31.3227 25.7201 31.8206 26.0461 32.1331 26.2451L30.9844 27.5552L32.1159 28.6731H34.4709L35.6029 27.382L34.3008 26.094C34.5255 25.9436 34.8048 25.7521 35.1118 25.5329C35.3169 25.3862 35.5336 25.2272 35.7546 25.0596C35.8375 24.9963 35.9216 24.9319 36.0051 24.8668C36.0057 24.8662 36.0063 24.8656 36.0069 24.865C36.0241 24.8521 36.0407 24.8392 36.0579 24.8257C36.1168 24.7796 36.1751 24.7324 36.2341 24.6851C36.5103 24.4641 36.7823 24.2345 37.0364 24.0018C37.0487 23.9907 37.0604 23.9797 37.0727 23.9686C37.1746 23.8741 37.2728 23.7802 37.3673 23.6862C37.3704 23.6832 37.3735 23.6801 37.3766 23.677C37.4822 23.572 37.5822 23.4677 37.6743 23.3639C37.7111 23.3234 37.7461 23.2829 37.7805 23.243C37.8364 23.1773 37.8916 23.1116 37.9407 23.0478L37.9414 23.0318L38.4822 24.2351L34.7999 37.9777ZM48.9913 31.1711C48.723 30.6033 48.3921 30.0667 48.0096 29.5688C47.1532 28.4545 46.163 27.6902 45.1168 27.0763C43.9449 26.3893 42.7312 25.9148 41.5174 25.4365C40.6899 25.1118 39.8568 24.8158 39.0544 24.364L39.0575 24.3603L38.1581 22.3596L37.9819 22.3221L38.0451 21.2158C38.0555 21.1986 38.0666 21.1814 38.077 21.1649C38.5326 20.419 38.7665 19.6804 38.8831 19.193C38.9156 19.196 38.9488 19.1973 38.9813 19.1973C39.2668 19.1966 39.7936 19.0708 40.1042 18.2408C40.2086 17.9608 40.2571 17.6895 40.2755 17.5563C40.9428 16.0589 41.0926 15.1607 40.7617 14.6493C40.5972 14.3946 40.3246 14.2546 39.9961 14.2552C39.99 14.2552 39.9839 14.2558 39.9777 14.2558C39.9796 14.2374 39.9814 14.2196 39.9826 14.2012C40.0747 13.2729 40.1662 12.3367 40.1331 11.4072H38.0734C38.1642 11.9254 38.1648 12.4675 38.2723 12.9862C38.3459 13.3417 38.4699 13.6867 38.5915 14.0311C38.6738 14.2632 38.7536 14.4983 38.8285 14.7347C38.8377 15.0797 38.8358 15.4253 38.8205 15.771L39.1962 15.7679C39.2109 15.7194 39.2275 15.6703 39.2459 15.6224C39.3356 15.3879 39.5271 14.9618 39.785 14.7961H39.8114C39.812 14.7905 39.8126 14.785 39.8126 14.7795C39.8715 14.747 39.9329 14.7273 39.9974 14.7273C40.4376 14.7255 40.8452 15.1442 39.8175 17.4273C39.8175 17.4273 39.6849 18.7233 38.9801 18.7258C38.8475 18.7258 38.6959 18.6803 38.5203 18.5729C38.5203 18.5729 38.0193 23.2399 33.2602 23.3388C33.2541 23.3388 33.2473 23.3388 33.2412 23.3388C33.2031 23.3394 33.1669 23.3375 33.1276 23.3375C33.0896 23.3381 33.0533 23.3394 33.0153 23.3394C33.0091 23.3394 33.0024 23.3394 32.9962 23.3363C28.2365 23.2675 27.7098 18.6036 27.7098 18.6036C27.5348 18.7116 27.3832 18.7577 27.2512 18.7583C26.547 18.7601 26.4064 17.4648 26.4064 17.4642C26.1474 16.8969 25.7894 16.337 25.717 15.7041C25.6863 15.4401 25.6857 15.065 25.9374 14.9244C25.9374 14.9244 26.035 14.9152 26.1621 14.9631C26.3978 15.0367 26.7508 15.2498 26.8613 15.8717C26.8613 15.8717 27.164 15.8545 27.164 15.8508L27.2972 15.8416C27.2358 15.4137 27.1996 14.9766 27.1843 14.5364C27.2616 13.5001 27.4071 12.4724 27.7208 11.4778C27.7282 11.4545 27.7362 11.4306 27.7435 11.4072H26.1357C26.1019 12.2526 26.1259 13.098 26.151 13.8924C26.1535 13.9679 26.1572 14.0446 26.1652 14.1201C26.183 14.2319 26.1946 14.2933 26.1946 14.2933C25.8729 14.2988 25.6077 14.4394 25.4469 14.6917C25.1184 15.2049 25.2731 16.1025 25.9491 17.5968C25.9687 17.7294 26.0184 18.0007 26.1246 18.2801C26.4396 19.1082 26.9663 19.2304 27.2524 19.2298C27.2856 19.2298 27.3175 19.2286 27.3506 19.2249C27.463 19.6853 27.6828 20.3705 28.0953 21.0722L28.1966 22.4915L28.0302 22.5284L27.2113 24.3886C26.3426 24.9343 25.4235 25.2462 24.5186 25.6201C23.3669 26.0965 22.2152 26.5723 21.1052 27.2433C20.2255 27.7756 19.3869 28.4214 18.6318 29.2944C18.1498 29.8524 17.7385 30.4707 17.4119 31.1325C16.3946 33.1965 16.7262 35.6816 16.7262 37.9476C16.7262 38.8494 16.7568 39.855 17.4948 40.523C18.4101 41.353 19.7448 41.8472 20.8683 42.3125C22.3779 42.9387 23.9145 43.3593 25.4647 43.6797C26.7269 43.9413 27.994 44.1212 29.2642 44.2507C29.8849 44.3145 30.508 44.344 31.1293 44.3888C31.2945 44.3888 31.459 44.3888 31.6241 44.3888C31.723 44.4048 31.8224 44.4201 31.9213 44.4361C32.7531 44.43 33.5838 44.4244 34.415 44.4183C34.5138 44.4011 34.6133 44.3839 34.7115 44.3667C34.8767 44.3643 35.0412 44.3618 35.2063 44.3594C36.1573 44.2648 37.1107 44.2028 38.0598 44.0653C39.0765 43.9179 40.0901 43.7166 41.103 43.5072C42.4506 43.2285 43.7816 42.8196 45.0941 42.2806C46.2016 41.8251 47.4227 41.3726 48.3669 40.6175C49.5536 39.669 49.5794 38.5204 49.5794 37.117C49.5794 35.9051 49.5794 34.6932 49.5794 33.4819C49.5794 32.5948 49.3658 31.9625 48.9913 31.1711ZM16.5622 23.6733L16.1718 22.8046L16.1712 22.8169C16.1356 22.863 16.0957 22.9096 16.0557 22.9569C16.0306 22.9864 16.0054 23.0152 15.979 23.0447C15.9121 23.1196 15.8403 23.1945 15.7641 23.27C15.7617 23.2725 15.7598 23.2749 15.7574 23.2774C15.6892 23.3449 15.618 23.4124 15.5444 23.4806C15.5358 23.4886 15.5278 23.4965 15.5186 23.5051C15.335 23.6721 15.1392 23.8379 14.9396 23.9975C14.8973 24.0319 14.8549 24.0656 14.8126 24.0988C14.8003 24.1086 14.788 24.1178 14.7763 24.1276C14.7757 24.1283 14.7751 24.1283 14.7745 24.1289C14.7143 24.1761 14.6542 24.2222 14.594 24.2676C14.4344 24.3886 14.2785 24.5034 14.1299 24.6096C13.9089 24.7673 13.7069 24.9055 13.5454 25.0141L14.4847 25.943L13.6682 26.8743H11.9689L11.153 26.0682L11.9812 25.1228C11.7559 24.9792 11.3967 24.744 11.0007 24.4616C10.8393 24.3468 10.6723 24.2234 10.5053 24.0951C10.4992 24.0908 10.4936 24.0865 10.4875 24.0822C10.4163 24.027 10.3457 23.9717 10.2751 23.9152C10.2591 23.9023 10.2425 23.8888 10.226 23.8753C10.1554 23.8188 10.0854 23.7611 10.0166 23.7028C10.0105 23.6973 10.0037 23.6924 9.99698 23.6862C9.92454 23.6248 9.85332 23.5622 9.78456 23.5002C9.76676 23.4836 9.74896 23.4677 9.73177 23.4511C9.6802 23.4044 9.62986 23.3566 9.58136 23.3093C9.56232 23.2909 9.54329 23.2731 9.52488 23.2547C9.48067 23.2098 9.43893 23.1662 9.39718 23.122C9.37692 23.1006 9.35543 23.0785 9.33579 23.057C9.28606 23.0023 9.2394 22.9471 9.19582 22.8931L8.79247 23.809L11.7295 33.6182L11.9873 27.2365H13.5534L13.9052 33.5869L16.5622 23.6733ZM16.3277 37.9672C16.3044 37.9703 16.2804 37.9746 16.2565 37.9783C15.5726 38.0777 14.8844 38.1219 14.198 38.1907C14.0795 38.1925 13.9611 38.1944 13.842 38.1956C13.7701 38.2079 13.6989 38.2202 13.6277 38.2331C13.0279 38.2374 12.4287 38.2416 11.8289 38.2459C11.7571 38.2343 11.6859 38.2232 11.614 38.2116C11.4956 38.2116 11.3765 38.2116 11.258 38.2116C10.8092 38.1796 10.3598 38.1582 9.91226 38.1121C8.99568 38.0182 8.08155 37.8886 7.17111 37.7002C6.05255 37.4687 4.94442 37.1655 3.85472 36.7142C3.04496 36.3784 2.08172 36.0217 1.42175 35.4231C0.889486 34.9412 0.867385 34.2156 0.867385 33.5648C0.867385 31.9306 0.627957 30.1373 1.3622 28.6485C1.59734 28.1715 1.89386 27.7252 2.24195 27.3225C2.78711 26.6926 3.39182 26.2272 4.026 25.8435C4.82717 25.3592 5.6578 25.016 6.48843 24.6722C7.14103 24.4021 7.80467 24.1774 8.43087 23.7838L9.02146 22.4418L9.14179 22.4154L9.06873 21.3914C8.77098 20.8849 8.61259 20.3913 8.53155 20.0592C8.50761 20.061 8.48428 20.0623 8.46095 20.0623C8.25468 20.0629 7.87405 19.9751 7.6469 19.3771C7.57016 19.1758 7.53455 18.9799 7.52043 18.8842C7.03298 17.8061 6.92124 17.159 7.15822 16.7882C7.27425 16.6071 7.46579 16.5052 7.69785 16.5015C7.69785 16.5015 7.68926 16.4567 7.67636 16.3763C7.67084 16.3217 7.66838 16.2664 7.66654 16.2118C7.64812 15.639 7.63032 15.0294 7.65488 14.4191H8.81519C8.80966 14.4363 8.80413 14.4529 8.79861 14.4701C8.57269 15.1878 8.46709 15.9294 8.41184 16.6765C8.42289 16.9939 8.44868 17.3095 8.49349 17.6183L8.39711 17.625C8.39711 17.6275 8.17855 17.6397 8.17855 17.6397C8.09874 17.1916 7.84458 17.0375 7.67391 16.9847C7.58244 16.9497 7.51245 16.9565 7.51245 16.9565C7.33011 17.0584 7.33134 17.3285 7.35283 17.5188C7.40563 17.9749 7.66347 18.3795 7.85072 18.789C7.85072 18.789 7.95201 19.7234 8.45973 19.7222C8.55488 19.7222 8.66477 19.6884 8.79063 19.6104C8.79063 19.6104 9.17064 22.9747 12.6043 23.025C12.6086 23.0275 12.6135 23.0275 12.6178 23.0275C12.6454 23.0269 12.6718 23.0257 12.6988 23.0257C12.7277 23.0257 12.7535 23.0269 12.7811 23.0269C12.7854 23.0269 12.7897 23.0269 12.7946 23.0269C16.2276 22.9551 16.5892 19.5883 16.5892 19.5883C16.7157 19.6663 16.8256 19.6988 16.9208 19.6982C17.4291 19.697 17.5249 18.762 17.5249 18.762C18.2665 17.1148 17.9724 16.8134 17.6544 16.814C17.6084 16.814 17.5635 16.8281 17.5212 16.8521C17.5212 16.8558 17.5212 16.8601 17.5206 16.8638H17.5015C17.3155 16.9835 17.1774 17.2904 17.1123 17.4605C17.0994 17.4942 17.0877 17.5299 17.0767 17.5648L16.806 17.5673C16.8164 17.3181 16.8182 17.0688 16.8115 16.8189C16.7575 16.6489 16.6998 16.4794 16.6402 16.3118C16.553 16.0638 16.4634 15.8152 16.41 15.5579C16.3332 15.1841 16.3326 14.793 16.2669 14.4191H17.7526C17.7766 15.0901 17.7103 15.7654 17.6446 16.4352C17.6433 16.4481 17.6415 16.461 17.6403 16.4739C17.6446 16.4739 17.6495 16.4739 17.6538 16.4739C17.8908 16.4733 18.0872 16.5746 18.2063 16.7582C18.4451 17.1271 18.3365 17.7748 17.8558 18.8553C17.8416 18.9511 17.8073 19.1469 17.7311 19.3489C17.5077 19.9481 17.1277 20.0383 16.9214 20.0389C16.898 20.0389 16.8747 20.0377 16.8508 20.0359C16.7667 20.3876 16.5978 20.9199 16.2694 21.4583C16.262 21.4706 16.254 21.4823 16.2461 21.4945L16.2006 22.2933L16.3277 22.3203L16.9766 23.7636L16.9742 23.766C17.5537 24.092 18.1547 24.3051 18.7509 24.5402C19.6269 24.8846 20.5024 25.2272 21.3477 25.7226C21.6129 25.8785 21.8726 26.0474 22.1256 26.2358C21.713 26.4384 21.3029 26.6576 20.899 26.9019C19.8762 27.5208 19.0363 28.2176 18.3309 29.0329C17.8245 29.6185 17.3953 30.265 17.0546 30.9557C16.1927 32.7041 16.2485 34.6883 16.3025 36.608C16.3148 37.0513 16.3277 37.5092 16.3277 37.9476C16.3277 37.9543 16.3277 37.9605 16.3277 37.9672ZM6.81135 14.1312H18.5863C18.9608 14.1312 19.2678 13.8242 19.2678 13.4491C19.2678 13.0746 18.9608 12.7671 18.5863 12.7671H18.1167C18.1026 11.1684 17.383 9.73615 16.251 8.76186V11.6442C16.251 11.7038 16.2025 11.7523 16.1429 11.7523C16.0834 11.7523 16.0349 11.7038 16.0349 11.6442V8.67959C16.0349 8.65135 16.0459 8.62618 16.0631 8.60715C15.5161 8.17741 14.8844 7.85019 14.1956 7.65435C14.028 7.61137 13.8591 7.57883 13.6909 7.55366V12.058H11.7067V7.56533C11.3949 7.60892 11.2021 7.65435 11.2021 7.65435C10.5108 7.8508 9.87604 8.17986 9.32781 8.61206C9.34254 8.63048 9.35114 8.65381 9.35114 8.67959V11.6442C9.35114 11.7038 9.30325 11.7523 9.2437 11.7523C9.18415 11.7523 9.13565 11.7038 9.13565 11.6442V8.77045C8.00972 9.74474 7.29512 11.1727 7.281 12.7671H6.81135C6.43686 12.7671 6.1299 13.0746 6.1299 13.4491C6.1299 13.8242 6.43686 14.1312 6.81135 14.1312ZM13.5381 11.9051H11.859V6.66348C11.859 6.40318 12.072 6.19015 12.3323 6.19015H13.0647C13.325 6.19015 13.5381 6.40318 13.5381 6.66348V11.9051ZM57.4192 23.6733L57.0287 22.8046L57.0281 22.8169C56.9925 22.863 56.9526 22.9096 56.9127 22.9569C56.8875 22.9864 56.8624 23.0152 56.836 23.0447C56.769 23.1196 56.6972 23.1945 56.6217 23.27C56.6192 23.2725 56.6168 23.2749 56.6143 23.2774C56.5462 23.3449 56.475 23.4124 56.4019 23.4806C56.3933 23.4886 56.3847 23.4965 56.3755 23.5051C56.1926 23.6721 55.9961 23.8379 55.7966 23.9975C55.7542 24.0319 55.7125 24.0656 55.6695 24.0988C55.6572 24.1086 55.6456 24.1178 55.6333 24.1276C55.6327 24.1283 55.6321 24.1283 55.6314 24.1289C55.5713 24.1761 55.5111 24.2222 55.451 24.2676C55.2913 24.3886 55.1354 24.5034 54.9874 24.6096C54.7658 24.7673 54.5645 24.9055 54.4024 25.0141L55.3417 25.943L54.5252 26.8743H52.8258L52.0099 26.0682L52.8381 25.1228C52.6128 24.9792 52.2537 24.744 51.8577 24.4616C51.6968 24.3468 51.5292 24.2234 51.3622 24.0951C51.3567 24.0908 51.3506 24.0865 51.3444 24.0822C51.2738 24.027 51.2026 23.9717 51.1326 23.9152C51.1161 23.9023 51.0995 23.8888 51.0829 23.8753C51.0123 23.8188 50.9423 23.7611 50.8742 23.7028C50.8674 23.6973 50.8607 23.6924 50.8539 23.6862C50.7815 23.6248 50.7103 23.5622 50.6415 23.5002C50.6237 23.4836 50.6065 23.4677 50.5887 23.4511C50.5371 23.4044 50.4868 23.3566 50.4383 23.3093C50.4193 23.2909 50.4002 23.2731 50.3818 23.2547C50.3376 23.2098 50.2959 23.1662 50.2547 23.122C50.2339 23.1006 50.2124 23.0785 50.1933 23.057C50.1436 23.0023 50.097 22.9471 50.0528 22.8931L49.6494 23.809L52.5864 33.6182L52.8442 27.2365H54.411L54.7621 33.5869L57.4192 23.6733ZM65.4241 30.3436C65.4241 31.2178 65.4241 32.0914 65.4241 32.9662C65.4241 33.978 65.4057 34.8068 64.5499 35.4907C63.8684 36.0358 62.9874 36.3624 62.1881 36.6909C61.2421 37.0795 60.2813 37.3748 59.3094 37.5755C58.5789 37.7266 57.8471 37.8715 57.1141 37.9783C56.4295 38.0777 55.742 38.1219 55.0556 38.1907C54.9365 38.1925 54.818 38.1944 54.6989 38.1956C54.6277 38.2079 54.5559 38.2202 54.4846 38.2331C53.8855 38.2374 53.2857 38.2416 52.6859 38.2459C52.614 38.2343 52.5428 38.2232 52.471 38.2116C52.3525 38.2116 52.2334 38.2116 52.1149 38.2116C51.6661 38.1796 51.2168 38.1582 50.7692 38.1121C50.5003 38.0845 50.2314 38.0538 49.9631 38.0194C49.9779 37.7186 49.9785 37.4172 49.9785 37.117V33.4819C49.9785 32.5193 49.7384 31.8188 49.3517 31.0005C49.0748 30.4148 48.7298 29.8518 48.3252 29.3251C47.5326 28.2943 46.578 27.4704 45.3188 26.7319C44.9935 26.5416 44.665 26.3672 44.3341 26.2039C44.514 26.0756 44.6975 25.9559 44.8829 25.8435C45.6841 25.3592 46.5147 25.016 47.3454 24.6722C47.9986 24.4021 48.6616 24.1774 49.2878 23.7838L49.879 22.4418L49.9987 22.4154L49.9257 21.3914C49.6279 20.8849 49.4695 20.3913 49.3885 20.0592C49.3646 20.061 49.3412 20.0623 49.3179 20.0623C49.1116 20.0629 48.731 19.9751 48.5045 19.3771C48.4271 19.1758 48.3915 18.9799 48.3774 18.8842C47.8899 17.8061 47.7788 17.159 48.0152 16.7882C48.1312 16.6071 48.3227 16.5052 48.5548 16.5015C48.5548 16.5015 48.5462 16.4567 48.5333 16.3763C48.5278 16.3217 48.5253 16.2664 48.5235 16.2118C48.5051 15.639 48.4879 15.0294 48.5118 14.4191H49.6721C49.6666 14.4363 49.6611 14.4529 49.6556 14.4701C49.4296 15.1878 49.3246 15.9294 49.2688 16.6765C49.2798 16.9939 49.3056 17.3095 49.3504 17.6183L49.2541 17.625C49.2541 17.6275 49.0355 17.6397 49.0355 17.6397C48.9557 17.1916 48.7015 17.0375 48.5309 16.9847C48.4394 16.9497 48.3694 16.9565 48.3694 16.9565C48.1877 17.0584 48.1883 17.3285 48.2098 17.5188C48.2626 17.9749 48.5204 18.3795 48.7077 18.789C48.7077 18.789 48.809 19.7234 49.3173 19.7222C49.4124 19.7222 49.5217 19.6884 49.6476 19.6104C49.6476 19.6104 50.0276 22.9747 53.4612 23.025C53.4655 23.0275 53.4704 23.0275 53.4747 23.0275C53.5024 23.0269 53.5288 23.0257 53.5558 23.0257C53.5846 23.0257 53.6104 23.0269 53.6381 23.0269C53.643 23.0269 53.6473 23.0269 53.6516 23.0269C57.0852 22.9551 57.4462 19.5883 57.4462 19.5883C57.5727 19.6663 57.6825 19.6988 57.7777 19.6982C58.286 19.697 58.3818 18.762 58.3818 18.762C59.1234 17.1148 58.8293 16.8134 58.512 16.814C58.4653 16.814 58.4205 16.8281 58.3781 16.8521C58.3781 16.8558 58.3781 16.8601 58.3781 16.8638H58.3591C58.1725 16.9835 58.0349 17.2904 57.9692 17.4605C57.9564 17.4942 57.9447 17.5299 57.9336 17.5648L57.6629 17.5673C57.6733 17.3181 57.6752 17.0688 57.6684 16.8189C57.6144 16.6489 57.5567 16.4794 57.4971 16.3118C57.41 16.0638 57.3203 15.8152 57.2669 15.5579C57.1902 15.1841 57.1896 14.793 57.1239 14.4191H58.6096C58.6335 15.0901 58.5678 15.7654 58.5015 16.4352C58.5003 16.4481 58.4984 16.461 58.4972 16.4739C58.5021 16.4739 58.5064 16.4739 58.5107 16.4739C58.7477 16.4733 58.9442 16.5746 59.0633 16.7582C59.3021 17.1271 59.194 17.7748 58.7127 18.8553C58.6992 18.9511 58.6642 19.1469 58.5887 19.3489C58.3646 19.9481 57.9852 20.0383 57.7783 20.0389C57.755 20.0389 57.7317 20.0377 57.7077 20.0359C57.6242 20.3876 57.4548 20.9199 57.1263 21.4583C57.119 21.4706 57.111 21.4823 57.103 21.4945L57.0576 22.2933L57.1847 22.3203L57.8336 23.7636L57.8311 23.766C58.4107 24.092 59.0117 24.3051 59.6084 24.5402C60.4839 24.8846 61.3599 25.2272 62.2053 25.7226C62.9592 26.1652 63.6738 26.7172 64.2914 27.5208C64.5677 27.8793 64.8065 28.2673 64.9999 28.6768C65.27 29.2477 65.4241 29.7033 65.4241 30.3436ZM54.395 6.66348C54.395 6.40318 54.182 6.19015 53.9223 6.19015H53.1893C52.929 6.19015 52.7166 6.40318 52.7166 6.66348V11.9051H54.395V6.66348ZM46.9868 13.4491C46.9868 13.0746 47.2938 12.7671 47.6683 12.7671H48.1379C48.1521 11.1727 48.8667 9.74474 49.9926 8.77045V11.6442C49.9926 11.7038 50.0411 11.7523 50.1006 11.7523C50.1602 11.7523 50.2087 11.7038 50.2087 11.6442V8.67959C50.2087 8.65381 50.1995 8.63048 50.1848 8.61206C50.733 8.17986 51.3678 7.8508 52.0597 7.65435C52.0597 7.65435 52.2518 7.60892 52.5637 7.56533V12.058H54.5479V7.55366C54.7161 7.57883 54.8849 7.61137 55.0525 7.65435C55.7413 7.85019 56.3737 8.17741 56.9207 8.60715C56.9029 8.62618 56.8924 8.65135 56.8924 8.67959V11.6442C56.8924 11.7038 56.9403 11.7523 57.0005 11.7523C57.06 11.7523 57.1079 11.7038 57.1079 11.6442V8.76186C58.24 9.73615 58.9595 11.1684 58.9736 12.7671H59.4433C59.8178 12.7671 60.1247 13.0746 60.1247 13.4491C60.1247 13.8242 59.8178 14.1312 59.4433 14.1312H47.6683C47.2938 14.1312 46.9868 13.8242 46.9868 13.4491Z" fill="#1D9A78"/>
</svg>
