<svg width="48" height="48" viewBox="0 0 48 48" fill="none" xmlns="http://www.w3.org/2000/svg">
<path d="M33.4954 29.1964C34.8113 26.1494 34.2342 22.476 31.7431 19.9919C29.7657 18.0075 27.0353 17.2474 24.4668 17.6837L29.3224 22.5393L27.7038 27.7257L22.5386 29.3512L17.683 24.4956C17.2467 27.0712 18.0138 29.8087 19.9982 31.7861C22.4823 34.2702 26.1416 34.8472 29.1816 33.5242L41.5599 45.9025C42.7491 47.0917 44.6843 47.0917 45.8736 45.8954C47.0629 44.6991 47.0629 42.7639 45.8736 41.5676L33.4954 29.1964Z" fill="white"/>
<mask id="mask0_693_6828" style="mask-type:luminance" maskUnits="userSpaceOnUse" x="-1" y="0" width="49" height="48">
<path d="M-0.000244141 0H47.9998V48H-0.000244141V0Z" fill="white"/>
</mask>
<g mask="url(#mask0_693_6828)">
<path d="M42.3842 20.5554C41.8986 17.9587 40.8853 15.552 39.4497 13.4479L42.6727 8.72604L39.2949 5.34823L34.566 8.56418C32.4689 7.12862 30.0623 6.11528 27.4656 5.62972L26.3959 0.00708008H21.6177L20.5551 5.62972C17.9585 6.11528 15.5518 7.12862 13.4477 8.56418L8.72579 5.34823L5.34799 8.72604L8.56394 13.4479C7.12837 15.552 6.11503 17.9587 5.62947 20.5554L0.00683594 21.618V26.3962L5.62947 27.4658C6.11503 30.0625 7.12837 32.4692 8.56394 34.5662L5.34799 39.2952L8.72579 42.673L13.4477 39.45C15.5518 40.8855 17.9585 41.8989 20.5551 42.3844L21.6177 48.0141H26.3959L27.4656 42.3844C28.8097 42.1381 30.0974 41.737 31.3289 41.2163L27.0433 36.9377C26.0652 37.17 25.0518 37.3037 24.0104 37.3037C16.6636 37.3037 10.7173 31.3503 10.7173 24.0106C10.7173 16.6639 16.6636 10.7175 24.0104 10.7175C31.35 10.7175 37.3034 16.6639 37.3034 24.0106C37.3034 25.0591 37.1697 26.0725 36.9375 27.0506L41.216 31.3221C41.7368 30.0977 42.1379 28.8099 42.3842 27.4658L48.0139 26.3962V21.618L42.3842 20.5554Z" fill="white"/>
</g>
</svg>
