<svg width="45" height="50" viewBox="0 0 45 50" fill="none" xmlns="http://www.w3.org/2000/svg">
<path d="M22.6626 0.138672C10.5382 0.138672 0.662598 10.0142 0.662598 22.1387C0.662598 31.6965 6.79815 39.8365 15.3293 42.8431V49.0276H20.2182V43.992C21.8418 44.19 23.4834 44.19 25.107 43.992V49.0276H29.9959V42.8431C38.527 39.812 44.6626 31.672 44.6626 22.1387C44.6626 10.0142 34.787 0.138672 22.6626 0.138672ZM28.1626 29.472L20.8293 36.8053L17.1626 33.1387L20.2182 30.0831L17.1626 27.0276L24.4959 19.6942L28.1626 23.3609L25.107 26.4165L28.1626 29.472ZM32.4404 17.2498H12.8848V12.3609H32.4404V17.2498Z" fill="white"/>
</svg>
