<svg width="44" height="44" viewBox="0 0 44 44" fill="none" xmlns="http://www.w3.org/2000/svg">
<mask id="mask0_294_3092" style="mask-type:luminance" maskUnits="userSpaceOnUse" x="0" y="0" width="44" height="44">
<path d="M34.686 13.171C35.9613 14.9977 36.8242 17.0798 37.215 19.273H42V24.727H37.215C36.8242 26.9202 35.9613 29.0023 34.686 30.829L38.071 34.214L34.214 38.071L30.829 34.686C29.0023 35.9613 26.9202 36.8242 24.727 37.215V42H19.273V37.215C17.0798 36.8242 14.9977 35.9613 13.171 34.686L9.786 38.071L5.929 34.214L9.314 30.829C8.03874 29.0023 7.17581 26.9202 6.785 24.727H2V19.273H6.785C7.17581 17.0798 8.03874 14.9977 9.314 13.171L5.929 9.786L9.786 5.929L13.171 9.314C14.9977 8.03874 17.0798 7.17581 19.273 6.785V2H24.727V6.785C26.9202 7.17581 29.0023 8.03874 30.829 9.314L34.214 5.929L38.071 9.786L34.686 13.171Z" fill="white" stroke="white" stroke-width="4" stroke-linejoin="round"/>
<path d="M22 27C23.3261 27 24.5979 26.4732 25.5355 25.5355C26.4732 24.5979 27 23.3261 27 22C27 20.6739 26.4732 19.4021 25.5355 18.4645C24.5979 17.5268 23.3261 17 22 17C20.6739 17 19.4021 17.5268 18.4645 18.4645C17.5268 19.4021 17 20.6739 17 22C17 23.3261 17.5268 24.5979 18.4645 25.5355C19.4021 26.4732 20.6739 27 22 27Z" fill="black" stroke="black" stroke-width="4" stroke-linejoin="round"/>
</mask>
<g mask="url(#mask0_294_3092)">
<path d="M-2 -2H46V46H-2V-2Z" fill="white"/>
</g>
</svg>
