<svg width="45" height="45" viewBox="0 0 45 45" fill="none" xmlns="http://www.w3.org/2000/svg">
<path d="M41.9427 33.7075L44.1375 31.7802L42.2122 28.446L39.4205 29.3903C38.8024 28.8688 38.099 28.458 37.3412 28.1762L36.7637 25.2852H32.9131L32.3355 28.1569C31.5777 28.4387 30.8743 28.8495 30.2562 29.3711L27.4646 28.4267L25.5393 31.7609L27.7341 33.6882C27.5801 34.4903 27.5801 35.3145 27.7341 36.1166L25.5393 38.0439L27.4646 41.3781L30.2562 40.4337C30.8743 40.9553 31.5777 41.3661 32.3355 41.6479L32.9131 44.5581H36.7637L37.3412 41.6865C38.099 41.4046 38.8025 40.9938 39.4205 40.4723L42.2122 41.4166L44.1375 38.0824L41.9427 36.1551C42.0967 35.3465 42.0967 34.5161 41.9427 33.7075ZM34.8384 38.7762C34.0768 38.7762 33.3323 38.5502 32.6991 38.1266C32.0659 37.7031 31.5724 37.1011 31.2809 36.3968C30.9895 35.6924 30.9132 34.9174 31.0618 34.1697C31.2104 33.422 31.5771 32.7351 32.1156 32.1961C32.6541 31.657 33.3402 31.2899 34.0872 31.1412C34.8341 30.9924 35.6083 31.0688 36.3119 31.3605C37.0155 31.6522 37.6169 32.1463 38.04 32.7802C38.4631 33.4141 38.6889 34.1593 38.6889 34.9217C38.6859 35.943 38.2792 36.9217 37.5578 37.6439C36.8363 38.3661 35.8587 38.7732 34.8384 38.7762ZM42.5395 19.5034H0.18335V0.230469H42.5395V19.5034ZM4.03391 15.6488H38.6889V4.08505H4.03391V15.6488ZM23.2867 7.93962H5.95919V11.7942H23.2867V7.93962ZM29.0625 7.93962C28.6818 7.93962 28.3095 8.05266 27.9929 8.26443C27.6763 8.4762 27.4295 8.77721 27.2838 9.12937C27.1381 9.48154 27.1 9.86905 27.1743 10.2429C27.2485 10.6168 27.4319 10.9602 27.7012 11.2297C27.9704 11.4992 28.3135 11.6828 28.6869 11.7572C29.0604 11.8315 29.4475 11.7934 29.7993 11.6475C30.1511 11.5016 30.4518 11.2546 30.6634 10.9377C30.8749 10.6207 30.9878 10.2481 30.9878 9.86691C30.9878 9.35576 30.785 8.86555 30.4239 8.50411C30.0629 8.14268 29.5732 7.93962 29.0625 7.93962ZM34.8384 7.93962C34.4576 7.93962 34.0854 8.05266 33.7688 8.26443C33.4521 8.4762 33.2054 8.77721 33.0597 9.12937C32.9139 9.48154 32.8758 9.86905 32.9501 10.2429C33.0244 10.6168 33.2077 10.9602 33.477 11.2297C33.7463 11.4992 34.0893 11.6828 34.4628 11.7572C34.8362 11.8315 35.2234 11.7934 35.5752 11.6475C35.927 11.5016 36.2276 11.2546 36.4392 10.9377C36.6507 10.6207 36.7637 10.2481 36.7637 9.86691C36.7637 9.35576 36.5608 8.86555 36.1998 8.50411C35.8387 8.14268 35.349 7.93962 34.8384 7.93962Z" fill="white"/>
<path d="M21.9275 38.7757H4.03391V27.212H23.7873C24.8793 25.65 26.2886 24.3365 27.9228 23.3574H0.18335V42.6303H23.7873C22.9653 41.4534 22.3373 40.1519 21.9275 38.7757Z" fill="white"/>
<path d="M5.95923 34.921H21.3615C21.3627 33.6155 21.5533 32.317 21.9275 31.0664H5.95923V34.921Z" fill="white"/>
</svg>
