<svg width="39" height="49" viewBox="0 0 39 49" fill="none" xmlns="http://www.w3.org/2000/svg">
<path d="M10.4673 34.353V32.7285C10.4673 30.7145 11.6833 28.9404 13.5239 27.8669C11.9522 27.1988 10.4927 26.2928 9.19666 25.1808C7.04966 27.114 5.71729 29.7835 5.71729 32.7285V34.353C4.3323 34.8416 3.13235 35.7466 2.28195 36.9439C1.43155 38.1413 0.972338 39.5724 0.967285 41.041C0.967285 44.9693 4.16404 48.166 8.09229 48.166C12.0205 48.166 15.2173 44.9693 15.2173 41.041C15.2122 39.5724 14.753 38.1413 13.9026 36.9439C13.0522 35.7466 11.8523 34.8416 10.4673 34.353ZM8.09229 43.416C7.48077 43.3887 6.90337 43.1265 6.48032 42.6841C6.05726 42.2417 5.82115 41.6531 5.82115 41.041C5.82115 40.4289 6.05726 39.8404 6.48032 39.3979C6.90337 38.9555 7.48077 38.6934 8.09229 38.666C8.7038 38.6934 9.2812 38.9555 9.70425 39.3979C10.1273 39.8404 10.3634 40.4289 10.3634 41.041C10.3634 41.6531 10.1273 42.2417 9.70425 42.6841C9.2812 43.1265 8.7038 43.3887 8.09229 43.416ZM29.4673 14.4766V15.3103C29.4673 17.6496 28.1967 19.7088 26.2729 20.9153C27.8406 21.5608 29.3006 22.4417 30.6025 23.5278C32.8255 21.4425 34.2173 18.5355 34.2173 15.3126V14.479C35.6023 13.9905 36.8022 13.0855 37.6526 11.8881C38.503 10.6907 38.9622 9.25963 38.9673 7.79102C38.9673 3.86277 35.7705 0.666016 31.8423 0.666016C27.914 0.666016 24.7173 3.86277 24.7173 7.79102C24.7173 10.8833 26.7099 13.4934 29.4673 14.4766ZM31.8423 5.41602C32.3127 5.41555 32.7727 5.55464 33.164 5.81569C33.5553 6.07673 33.8604 6.44801 34.0406 6.88251C34.2208 7.31702 34.2681 7.79522 34.1765 8.25661C34.0848 8.718 33.8583 9.14182 33.5257 9.47445C33.1931 9.80707 32.7693 10.0335 32.3079 10.1252C31.8465 10.2169 31.3683 10.1696 30.9338 9.98934C30.4993 9.80911 30.128 9.50403 29.867 9.11271C29.6059 8.72139 29.4668 8.26142 29.4673 7.79102C29.4673 6.48239 30.5313 5.41602 31.8423 5.41602ZM34.0629 34.3055C33.0892 27.3871 27.1493 22.041 19.9673 22.041C17.7747 22.0387 15.6503 21.2787 13.9537 19.8899C12.2572 18.501 11.0926 16.5686 10.6573 14.4196C11.9967 13.9028 13.1487 12.9934 13.9624 11.8106C14.7761 10.6277 15.2135 9.22669 15.2173 7.79102C15.2173 3.86277 12.0205 0.666016 8.09229 0.666016C4.16404 0.666016 0.967285 3.86277 0.967285 7.79102C0.967285 10.9403 3.03354 13.586 5.87166 14.5265C6.84541 21.4449 12.7853 26.791 19.9673 26.791C22.1598 26.7934 24.2842 27.5533 25.9808 28.9422C27.6774 30.331 28.8419 32.2635 29.2773 34.4124C27.9379 34.9292 26.7858 35.8386 25.9721 37.0215C25.1584 38.2043 24.721 39.6053 24.7173 41.041C24.7173 44.9693 27.914 48.166 31.8423 48.166C35.7705 48.166 38.9673 44.9693 38.9673 41.041C38.9673 37.8918 36.901 35.246 34.0629 34.3055ZM8.09229 5.41602C8.56269 5.41555 9.02266 5.55464 9.41398 5.81569C9.8053 6.07673 10.1104 6.44801 10.2906 6.88251C10.4708 7.31702 10.5181 7.79522 10.4265 8.25661C10.3348 8.718 10.1083 9.14182 9.77572 9.47445C9.44309 9.80707 9.01927 10.0335 8.55788 10.1252C8.09649 10.2169 7.61829 10.1696 7.18378 9.98934C6.74928 9.80911 6.378 9.50403 6.11695 9.11271C5.85591 8.72139 5.71682 8.26142 5.71729 7.79102C5.71729 6.48239 6.78129 5.41602 8.09229 5.41602ZM31.8423 43.416C31.2308 43.3887 30.6534 43.1265 30.2303 42.6841C29.8073 42.2417 29.5711 41.6531 29.5711 41.041C29.5711 40.4289 29.8073 39.8404 30.2303 39.3979C30.6534 38.9555 31.2308 38.6934 31.8423 38.666C32.4538 38.6934 33.0312 38.9555 33.4543 39.3979C33.8773 39.8404 34.1134 40.4289 34.1134 41.041C34.1134 41.6531 33.8773 42.2417 33.4543 42.6841C33.0312 43.1265 32.4538 43.3887 31.8423 43.416Z" fill="white"/>
</svg>
