<svg width="45" height="58" viewBox="0 0 45 58" fill="none" xmlns="http://www.w3.org/2000/svg">
<path fill-rule="evenodd" clip-rule="evenodd" d="M22.088 3.74784V1.41725C22.088 0.786048 23.0493 0.786048 23.0591 1.41725V3.73813C23.0591 4.37904 22.088 4.37904 22.088 3.74784ZM12.7171 8.04972C12.9016 8.23422 13.2123 8.23422 13.4065 8.04972C13.591 7.8555 13.591 7.54476 13.4065 7.36025L11.7654 5.71913C11.3284 5.26272 10.6293 5.9619 11.0857 6.40859L12.7171 8.04972ZM6.81291 17.7702H9.11437C9.74557 17.7702 9.74557 16.7991 9.11437 16.7894H6.81291C6.172 16.7894 6.172 17.7605 6.81291 17.7702ZM11.7654 28.8308L13.4065 27.1897C13.591 27.0052 13.591 26.6847 13.4065 26.5002C13.2123 26.3157 12.9016 26.3157 12.7171 26.5002L11.0857 28.1413C10.6293 28.588 11.3284 29.2872 11.7654 28.8308ZM32.43 8.04972L34.0614 6.40859C34.5178 5.9619 33.8186 5.26272 33.3719 5.71913L31.7405 7.36025C31.556 7.54476 31.556 7.8555 31.7405 8.04972C31.9347 8.25364 32.2358 8.25364 32.43 8.04972ZM36.023 17.7702H38.3438C38.975 17.7702 38.975 16.7991 38.3438 16.7894H36.023C35.4015 16.7894 35.4015 17.7605 36.023 17.7702ZM32.43 26.5002C32.2358 26.3157 31.925 26.3157 31.7405 26.5002C31.556 26.6847 31.556 27.0052 31.7405 27.1897L33.3719 28.8308C33.8186 29.2872 34.5178 28.588 34.0614 28.1413L32.43 26.5002ZM20.2041 32.8802C20.8741 33.6668 22.6609 33.2881 23.7388 33.3755C24.6613 33.3755 25.4188 32.618 25.4188 31.6858V29.4232H19.7185C19.7962 30.4331 19.4272 32.2102 20.2041 32.8802ZM16.0867 10.759C19.3398 7.21459 25.8072 7.21459 29.0603 10.759C33.3719 14.8376 32.2455 22.7421 26.8754 25.4223C26.7103 25.5097 26.6229 25.6748 26.6229 25.8593C26.5744 26.3643 26.8074 27.8889 26.3607 28.1996C26.2054 28.3647 25.982 28.4521 25.7392 28.4715H19.3981C18.9126 28.4715 18.5144 28.0636 18.5144 27.5781V25.8593C18.5144 25.6554 18.3979 25.4806 18.2231 25.4126C12.8822 22.713 11.7751 14.8278 16.0867 10.759ZM15.5429 17.3721C15.5429 17.9062 15.7468 18.4208 16.1353 18.8481L20.1264 22.8684C20.9615 23.7035 22.2919 23.7035 23.1173 22.8684L28.9826 16.9739C30.886 14.9832 28.031 12.0506 26.0208 13.9345L21.6219 18.3432L19.1456 15.8572C17.9026 14.5171 15.4846 15.5464 15.5429 17.3721ZM20.8159 22.1692C21.0392 22.3925 21.3305 22.4994 21.6219 22.4994C21.9229 22.4994 22.2045 22.3925 22.4279 22.1692L28.2932 16.265C29.3322 15.2163 27.7785 13.6043 26.6909 14.6142L21.952 19.3822C21.7675 19.5667 21.4568 19.5667 21.2723 19.3822L18.4659 16.5564C17.4171 15.5173 15.8148 17.0808 16.815 18.1684L20.8159 22.1692ZM4.65712 46.7958C4.49203 46.5821 4.13273 45.6693 3.84141 45.6402C3.71517 45.611 3.57922 45.6208 3.48211 45.6887L0.63685 47.3396C0.413501 47.4658 0.335815 47.7474 0.442634 47.9708L5.90981 57.5068C6.03605 57.7301 6.31766 57.8078 6.54101 57.6913L9.40569 56.0307C9.51251 55.9627 9.5902 55.8559 9.62904 55.7394C9.79412 55.5258 8.90073 54.2634 8.7842 53.9817L4.65712 46.7958ZM44.5393 40.0953C43.3255 38.8232 41.3736 40.4061 40.1015 41.1538C37.635 42.7852 33.9643 44.805 31.1093 46.5724C29.2837 47.2425 24.807 46.786 22.6901 47.4755C21.3208 47.7863 20.2332 48.2038 19.6409 48.6797C19.4369 48.8544 19.1359 48.8156 18.9708 48.6214C18.3493 47.592 21.214 46.8637 22.4861 46.5336C24.5351 45.8441 28.9535 46.2422 30.7597 45.6693C31.925 45.2032 31.3326 43.6009 30.5461 43.0086C29.9537 42.5036 29.1671 42.2414 28.3611 42.2608C25.6033 42.2608 22.1074 41.9015 18.9805 41.0373C11.2507 38.8232 11.0857 43.0959 5.67675 46.6501L9.35714 53.0592C11.6489 51.5249 14.6301 51.4375 17.32 52.5251C20.9809 53.6516 25.5062 55.0402 30.4781 52.1464C33.3428 50.4373 46.3358 42.5036 44.5393 40.0953ZM31.8667 43.0377C32.1872 43.5232 32.3814 44.0865 32.3717 44.6497C35.4889 42.9309 38.6255 40.8722 41.3542 39.2796C40.3054 37.5317 38.0331 39.2796 36.7318 40.0662C35.3432 40.9984 33.5758 42.0375 31.8667 43.0377ZM33.605 39.1339C32.5465 39.8428 31.051 40.7265 29.7789 41.4937C30.3033 41.6685 30.7986 41.9501 31.2064 42.2997C33.6827 40.9304 35.8482 39.3864 38.1011 38.1337C36.9649 36.9393 35.6831 37.8618 33.605 39.1339Z" fill="white"/>
</svg>
