<svg width="55" height="52" viewBox="0 0 55 52" fill="none" xmlns="http://www.w3.org/2000/svg">
<path d="M9.68836 0.182861L6.95613 2.91121L11.0215 6.97462L13.7498 4.24627L9.68642 0.182861H9.68836ZM45.3451 0.182861L41.2797 4.24627L44.01 6.97462L48.0734 2.91315L45.3451 0.182861ZM27.5157 1.39373C26.8754 1.4015 26.2273 1.43837 25.5752 1.51793C25.5558 1.51793 25.5364 1.51405 25.517 1.51793C17.6464 2.42026 11.3824 8.77928 10.2938 16.615C9.42445 22.9217 12.0247 28.6403 16.3579 32.3234C18.1303 33.8361 19.3292 35.9119 19.7537 38.2031V49.8461H24.1781C24.8534 51.0046 26.0856 51.7866 27.5157 51.7866C28.9459 51.7866 30.1781 51.0046 30.8534 49.8461H35.2777V42.0841H35.4602V39.7788C35.4602 36.934 36.9388 34.066 39.3412 31.8363C42.5546 28.619 44.9803 24.0491 44.9803 18.8C44.9803 9.21395 37.0902 1.30447 27.5157 1.39373ZM27.5157 5.27474C35.0158 5.16995 41.0993 11.3097 41.0993 18.8C41.0993 22.8634 39.217 26.4417 36.6109 29.0459L36.673 29.108C34.0831 31.4962 32.4085 34.7137 31.9381 38.205H23.4504C23.0235 34.879 21.5972 31.6597 18.9019 29.3505C15.473 26.4398 13.4296 22.0543 14.1127 17.1021C14.9607 10.9895 19.9206 6.07422 25.9983 5.40087C26.5001 5.33091 27.0054 5.28945 27.5119 5.27668L27.5157 5.27474ZM0.348724 18.8V22.681H6.17023V18.8H0.348724ZM48.8613 18.8V22.681H54.6828V18.8H48.8613ZM11.0215 34.5065L6.95807 38.5679L9.68836 41.2982L13.7479 37.2348L11.0215 34.5065ZM44.01 34.5065L41.2817 37.2348L45.3431 41.2982L48.0734 38.5679L44.01 34.5065ZM23.6347 42.086H31.3967V45.9671H23.6347V42.086Z" fill="#1D9A78"/>
</svg>
