<svg width="49" height="50" viewBox="0 0 49 50" fill="none" xmlns="http://www.w3.org/2000/svg">
<g clip-path="url(#clip0_422_8312)">
<path fill-rule="evenodd" clip-rule="evenodd" d="M29.218 1.77221C28.9778 1.10759 28.3399 0.663701 27.6267 0.663701H22.5475C22.1999 0.662905 21.8605 0.769412 21.5758 0.968677C21.291 1.16794 21.0746 1.45025 20.9563 1.77706L19.3554 6.24264C18.5185 6.541 17.8539 6.81752 17.3566 7.08191C16.9394 7.30264 16.4786 7.57674 15.9692 7.91633L11.3653 6.01463C11.0621 5.88919 10.7291 5.85405 10.4063 5.91344C10.0836 5.97282 9.78486 6.12421 9.54612 6.34937L6.14054 9.56575C5.885 9.80561 5.71211 10.1203 5.64673 10.4647C5.58136 10.809 5.62686 11.1652 5.7767 11.482L7.75116 15.6541C7.47247 16.2185 7.21835 16.7947 6.98951 17.3811C6.827 17.8202 6.64265 18.4217 6.43162 19.1955L1.87629 21.3834C1.60151 21.5141 1.36768 21.7174 1.20009 21.9713C1.03251 22.2253 0.937532 22.5202 0.925446 22.8242L0.755652 27.4839C0.743624 27.8524 0.853611 28.2145 1.06853 28.5141C1.28345 28.8137 1.59128 29.0339 1.94421 29.1406L6.28608 30.4625C6.50889 31.1254 6.75156 31.7814 7.01377 32.4297C7.2384 32.9594 7.48275 33.4804 7.74631 33.9918L5.76457 38.3094C5.62017 38.6255 5.57877 38.9789 5.64624 39.3197C5.71371 39.6605 5.88663 39.9715 6.14054 40.2087L9.55097 43.4081C9.7921 43.6336 10.0936 43.7842 10.4187 43.8415C10.7439 43.8987 11.0787 43.8603 11.3823 43.7307L15.991 41.7611C16.4824 42.015 16.9824 42.2521 17.4901 42.4718C18.1107 42.724 18.7384 42.9586 19.3723 43.1752L21.2304 48.092C21.3556 48.4183 21.5789 48.6977 21.8695 48.8919C22.1601 49.0861 22.5037 49.1854 22.8531 49.1762L27.4618 49.0719C27.8022 49.0652 28.1325 48.9558 28.4096 48.7579C28.6866 48.5601 28.8974 48.2832 29.0142 47.9634L30.5909 43.5973L32.3664 42.9327C33.039 42.6765 33.6951 42.3792 34.3312 42.0425L38.3965 44.1964C38.7037 44.359 39.0533 44.4239 39.3984 44.3822C39.7435 44.3406 40.0676 44.1945 40.3273 43.9636L44.2714 40.4416C44.5358 40.2065 44.718 39.8929 44.7914 39.5468C44.8647 39.2007 44.8253 38.8401 44.6789 38.518L42.605 33.9336C42.8754 33.3195 43.1166 32.693 43.3278 32.0562C43.4588 31.6438 43.5825 31.1563 43.7014 30.5862L47.8298 29.1187C48.139 29.0102 48.4096 28.8133 48.6079 28.5524C48.8063 28.2916 48.9237 27.9782 48.9456 27.6512L49.2658 22.618C49.3094 21.917 48.9044 21.2621 48.2494 20.9832L47.2943 20.5739C46.3268 21.5016 45.1866 22.2507 43.9269 22.768L45.819 23.5786L45.6443 26.3438L41.6469 27.7628C41.366 27.8615 41.1166 28.0334 40.9243 28.2607C40.732 28.4879 40.6038 28.7623 40.5529 29.0557C40.405 29.9192 40.2521 30.5911 40.1042 31.0568C39.9538 31.5322 39.6554 32.2769 39.214 33.2641C39.1181 33.4778 39.0687 33.7094 39.0691 33.9436C39.0695 34.1777 39.1197 34.4092 39.2164 34.6225L41.0987 38.7776L38.9471 40.6962L35.1219 38.6708C34.8696 38.5369 34.5877 38.4684 34.302 38.4718C34.0164 38.4752 33.7361 38.5503 33.4871 38.6903C32.5872 39.1996 31.8158 39.5708 31.1803 39.806L28.6649 40.7472C28.4368 40.8322 28.2299 40.9659 28.0586 41.1389C27.8873 41.3119 27.7557 41.52 27.6728 41.749L26.2247 45.761L23.9786 45.8095L22.2613 41.2711C22.1735 41.0399 22.0359 40.8309 21.8581 40.659C21.6803 40.4871 21.4668 40.3565 21.2328 40.2766C20.0539 39.874 19.2414 39.578 18.8169 39.401C18.3997 39.2239 17.7399 38.9013 16.8545 38.4356C16.6304 38.3179 16.3828 38.2516 16.1298 38.2415C15.8768 38.2315 15.6247 38.2779 15.3919 38.3773L11.0694 40.2257L9.3448 38.6054L11.1664 34.6322C11.273 34.4003 11.3243 34.1469 11.3163 33.8918C11.3083 33.6367 11.2412 33.387 11.1204 33.1623C10.7631 32.509 10.4361 31.8396 10.1404 31.1563C9.91724 30.6178 9.60676 29.7591 9.21867 28.5948C9.04644 28.0806 8.63409 27.6803 8.11258 27.5227L4.18306 26.3293L4.27039 23.9521L8.61226 21.8685C8.8324 21.7631 9.02681 21.6107 9.18185 21.4221C9.33688 21.2336 9.4488 21.0134 9.50974 20.777C9.69318 20.0218 9.91172 19.2755 10.1647 18.5406C10.3296 18.0991 10.6571 17.3811 11.1422 16.4084C11.2546 16.1841 11.3144 15.937 11.3169 15.6861C11.3194 15.4351 11.2646 15.1869 11.1567 14.9603L9.3545 11.1521L11.084 9.51724L15.5229 11.3486C15.7881 11.4585 16.0768 11.4997 16.3621 11.4683C16.6475 11.4369 16.9203 11.334 17.1553 11.1691C17.8733 10.6597 18.4773 10.2789 18.9503 10.029C19.3966 9.79376 20.1607 9.49056 21.2182 9.13884C21.46 9.05873 21.6803 8.92474 21.8627 8.747C22.0451 8.56925 22.1847 8.3524 22.271 8.1128L23.7385 4.00379H26.4366L28.0561 8.49605C28.1539 8.7642 28.3184 9.00306 28.5339 9.19018C28.7495 9.37731 29.0091 9.50655 29.2883 9.56575C29.3685 9.58205 29.4486 9.59891 29.5286 9.61633C29.8702 8.50642 30.3861 7.47293 31.0445 6.54782C31.0068 6.53826 30.9688 6.52871 30.9305 6.51916L29.218 1.77221ZM29.3275 15.2181C28.0228 14.6575 26.5831 14.3467 25.0701 14.3467V14.3491C19.1613 14.3491 14.3731 19.0839 14.3731 24.9248C14.3731 30.7657 19.1613 35.5006 25.0701 35.5006C30.9765 35.5006 35.7672 30.7657 35.7672 24.9248C35.7672 24.1533 35.6836 23.4011 35.5249 22.6765C32.4344 21.3274 30.0989 18.5715 29.3275 15.2181ZM17.7496 24.9248C17.7496 20.9274 21.0266 17.6892 25.0701 17.6892C29.1137 17.6892 32.3883 20.9274 32.3883 24.9248C32.3883 28.9223 29.1112 32.1629 25.0701 32.1629C21.0266 32.1629 17.7496 28.9223 17.7496 24.9248Z" fill="#1D9A78"/>
<mask id="path-2-inside-1_422_8312" fill="white">
<path d="M40.063 6.05371C38.6845 6.05371 37.3371 6.46246 36.1909 7.22828C35.0448 7.99409 34.1515 9.08257 33.624 10.3561C33.0965 11.6296 32.9585 13.0309 33.2274 14.3829C33.4963 15.7348 34.1601 16.9766 35.1348 17.9513C36.1095 18.926 37.3514 19.5898 38.7033 19.8587C40.0552 20.1276 41.4566 19.9896 42.7301 19.4621C44.0036 18.9346 45.0921 18.0413 45.8579 16.8952C46.6237 15.7491 47.0324 14.4016 47.0324 13.0232C47.0303 11.1754 46.2953 9.40397 44.9887 8.09742C43.6822 6.79086 41.9107 6.05588 40.063 6.05371ZM40.063 19.1727C38.8467 19.1727 37.6578 18.812 36.6465 18.1363C35.6352 17.4606 34.847 16.5002 34.3816 15.3765C33.9161 14.2528 33.7943 13.0164 34.0316 11.8235C34.2689 10.6306 34.8546 9.53483 35.7146 8.6748C36.5746 7.81478 37.6704 7.22909 38.8633 6.99181C40.0562 6.75453 41.2926 6.87631 42.4163 7.34175C43.54 7.8072 44.5004 8.5954 45.1761 9.60668C45.8518 10.618 46.2125 11.8069 46.2125 13.0232C46.2107 14.6536 45.5622 16.2167 44.4093 17.3696C43.2565 18.5224 41.6934 19.1709 40.063 19.1727ZM44.2993 13.0232C44.2993 13.1319 44.2561 13.2362 44.1792 13.3131C44.1024 13.39 43.9981 13.4331 43.8893 13.4331H40.063C39.9542 13.4331 39.85 13.39 39.7731 13.3131C39.6962 13.2362 39.653 13.1319 39.653 13.0232V9.1968C39.653 9.08807 39.6962 8.9838 39.7731 8.90691C39.85 8.83003 39.9542 8.78683 40.063 8.78683C40.1717 8.78683 40.276 8.83003 40.3529 8.90691C40.4297 8.9838 40.4729 9.08807 40.4729 9.1968V12.6132H43.8893C43.9981 12.6132 44.1024 12.6564 44.1792 12.7333C44.2561 12.8102 44.2993 12.9144 44.2993 13.0232Z"/>
</mask>
<path d="M40.063 6.05371L40.0661 3.35857H40.063V6.05371ZM47.0324 13.0232H49.7276L49.7276 13.02L47.0324 13.0232ZM40.063 19.1727V21.8678L40.066 21.8678L40.063 19.1727ZM46.2125 13.0232L48.9076 13.0262V13.0232H46.2125ZM40.4729 12.6132H37.7778V15.3083H40.4729V12.6132ZM40.063 3.35857C38.1515 3.35857 36.2829 3.92539 34.6936 4.98735L37.6883 9.46921C38.3912 8.99954 39.2176 8.74885 40.063 8.74885V3.35857ZM34.6936 4.98735C33.1043 6.04931 31.8655 7.55872 31.134 9.32469L36.114 11.3875C36.4375 10.6064 36.9854 9.93887 37.6883 9.46921L34.6936 4.98735ZM31.134 9.32469C30.4026 11.0907 30.2112 13.0339 30.5841 14.9086L35.8708 13.8571C35.7059 13.0279 35.7905 12.1685 36.114 11.3875L31.134 9.32469ZM30.5841 14.9086C30.957 16.7834 31.8774 18.5055 33.2291 19.8571L37.0406 16.0456C36.4428 15.4478 36.0357 14.6862 35.8708 13.8571L30.5841 14.9086ZM33.2291 19.8571C34.5807 21.2087 36.3028 22.1292 38.1775 22.5021L39.2291 17.2154C38.4 17.0504 37.6383 16.6434 37.0406 16.0456L33.2291 19.8571ZM38.1775 22.5021C40.0523 22.875 41.9955 22.6836 43.7615 21.9521L41.6987 16.9721C40.9177 17.2956 40.0582 17.3803 39.2291 17.2154L38.1775 22.5021ZM43.7615 21.9521C45.5274 21.2206 47.0368 19.9819 48.0988 18.3925L43.6169 15.3979C43.1473 16.1008 42.4797 16.6486 41.6987 16.9721L43.7615 21.9521ZM48.0988 18.3925C49.1608 16.8032 49.7276 14.9347 49.7276 13.0232H44.3373C44.3373 13.8686 44.0866 14.695 43.6169 15.3979L48.0988 18.3925ZM49.7276 13.02C49.7246 10.4586 48.7057 8.00288 46.8945 6.19166L43.083 10.0032C43.8849 10.8051 44.336 11.8923 44.3373 13.0263L49.7276 13.02ZM46.8945 6.19166C45.0833 4.38044 42.6276 3.36158 40.0661 3.35857L40.0598 8.74885C41.1939 8.75018 42.2811 9.20127 43.083 10.0032L46.8945 6.19166ZM40.063 16.4776C39.3798 16.4776 38.7119 16.275 38.1438 15.8954L35.1491 20.3772C36.6036 21.3491 38.3137 21.8678 40.063 21.8678V16.4776ZM38.1438 15.8954C37.5757 15.5158 37.133 14.9763 36.8715 14.3451L31.8916 16.4079C32.561 18.024 33.6946 19.4054 35.1491 20.3772L38.1438 15.8954ZM36.8715 14.3451C36.6101 13.7139 36.5417 13.0193 36.675 12.3493L31.3883 11.2977C31.047 13.0134 31.2221 14.7917 31.8916 16.4079L36.8715 14.3451ZM36.675 12.3493C36.8083 11.6792 37.1372 11.0637 37.6204 10.5806L33.8088 6.76905C32.5719 8.006 31.7295 9.58197 31.3883 11.2977L36.675 12.3493ZM37.6204 10.5806C38.1035 10.0975 38.719 9.76845 39.3891 9.63516L38.3375 4.34845C36.6218 4.68973 35.0458 5.5321 33.8088 6.76905L37.6204 10.5806ZM39.3891 9.63516C40.0591 9.50188 40.7537 9.57028 41.3849 9.83174L43.4477 4.85177C41.8315 4.18234 40.0532 4.00718 38.3375 4.34845L39.3891 9.63516ZM41.3849 9.83174C42.0161 10.0932 42.5556 10.5359 42.9352 11.104L47.417 8.10934C46.4452 6.65484 45.0638 5.5212 43.4477 4.85177L41.3849 9.83174ZM42.9352 11.104C43.3148 11.6721 43.5174 12.34 43.5174 13.0232H48.9076C48.9076 11.2739 48.3889 9.56384 47.417 8.10934L42.9352 11.104ZM43.5174 13.0202C43.5163 13.9368 43.1518 14.8156 42.5036 15.4638L46.3151 19.2753C47.9727 17.6177 48.905 15.3703 48.9076 13.0262L43.5174 13.0202ZM42.5036 15.4638C41.8554 16.112 40.9766 16.4765 40.06 16.4776L40.066 21.8678C42.4101 21.8652 44.6575 20.9329 46.3151 19.2753L42.5036 15.4638ZM41.6042 13.0232C41.6042 12.4171 41.8449 11.8359 42.2735 11.4073L46.085 15.2188C46.6673 14.6365 46.9945 13.8467 46.9945 13.0232H41.6042ZM42.2735 11.4073C42.702 10.9788 43.2833 10.738 43.8893 10.738V16.1283C44.7129 16.1283 45.5027 15.8011 46.085 15.2188L42.2735 11.4073ZM43.8893 10.738H40.063V16.1283H43.8893V10.738ZM40.063 10.738C40.669 10.738 41.2503 10.9788 41.6788 11.4073L37.8673 15.2188C38.4497 15.8011 39.2395 16.1283 40.063 16.1283V10.738ZM41.6788 11.4073C42.1074 11.8359 42.3481 12.4171 42.3481 13.0232H36.9579C36.9579 13.8467 37.285 14.6365 37.8673 15.2188L41.6788 11.4073ZM42.3481 13.0232V9.1968H36.9579V13.0232H42.3481ZM42.3481 9.1968C42.3481 9.80287 42.1074 10.3841 41.6788 10.8127L37.8673 7.00116C37.285 7.58348 36.9579 8.37327 36.9579 9.1968H42.3481ZM41.6788 10.8127C41.2503 11.2412 40.669 11.482 40.063 11.482V6.09169C39.2394 6.09169 38.4496 6.41884 37.8673 7.00116L41.6788 10.8127ZM40.063 11.482C39.4569 11.482 38.8757 11.2412 38.4471 10.8127L42.2586 7.00116C41.6763 6.41884 40.8865 6.09169 40.063 6.09169V11.482ZM38.4471 10.8127C38.0186 10.3841 37.7778 9.80286 37.7778 9.1968H43.1681C43.1681 8.37328 42.8409 7.58348 42.2586 7.00116L38.4471 10.8127ZM37.7778 9.1968V12.6132H43.1681V9.1968H37.7778ZM40.4729 15.3083H43.8893V9.91807H40.4729V15.3083ZM43.8893 15.3083C43.2833 15.3083 42.702 15.0676 42.2735 14.639L46.085 10.8275C45.5027 10.2452 44.7129 9.91807 43.8893 9.91807V15.3083ZM42.2735 14.639C41.8449 14.2105 41.6042 13.6292 41.6042 13.0232H46.9945C46.9945 12.1997 46.6673 11.4099 46.085 10.8275L42.2735 14.639Z" fill="#1D9A78" mask="url(#path-2-inside-1_422_8312)"/>
</g>
<defs>
<clipPath id="clip0_422_8312">
<rect width="48.5125" height="48.5125" fill="white" transform="translate(0.495239 0.931641)"/>
</clipPath>
</defs>
</svg>
