<svg width="59" height="37" viewBox="0 0 59 37" fill="none" xmlns="http://www.w3.org/2000/svg">
<path d="M23.0364 0.394718L18.0784 5.24492C16.594 5.64356 15.2162 6.37442 14.0519 7.38052L11.471 9.63003C10.4814 10.4938 9.19094 10.9683 7.86169 10.9683H5.9406V23.1176C7.91991 23.1745 9.8022 23.9623 11.2091 25.3386L14.6632 28.7176L15.3423 29.382L17.962 31.9447C18.5636 32.5332 19.5532 32.5332 20.1548 31.9447C20.3197 31.7834 20.4458 31.5936 20.5138 31.3942C20.7854 30.6634 21.4161 30.1129 22.1923 29.942C22.9685 29.7712 23.7835 29.999 24.3463 30.559L25.3941 31.5651C26.5196 32.6661 28.3437 32.6661 29.4595 31.5651C29.9834 31.0525 30.2648 30.3976 30.2939 29.7237C30.3327 28.8885 30.8372 28.1481 31.6134 27.7874C32.3896 27.4268 33.292 27.5027 33.9808 27.9868C34.8929 28.6227 36.1639 28.5373 36.9789 27.74C37.891 26.8478 37.891 25.405 36.9789 24.5223L29.6244 17.3277L26.1509 20.4599C23.5021 22.8518 19.4368 22.8898 16.7395 20.5454C13.6638 17.8687 13.5959 13.1989 16.5842 10.4368L23.3857 4.15339C26.0442 1.70456 29.5565 0.337769 33.2143 0.337769C36.7169 0.337769 40.1031 1.60015 42.7131 3.86864L45.6336 6.41238H57.1698C58.0237 6.41238 58.7222 7.09578 58.7222 7.93104V27.6735C58.7222 29.3535 57.3348 30.7108 55.6174 30.7108H52.5126C51.3677 30.7108 50.3587 30.1034 49.825 29.1922H41.5876C41.2577 29.8281 40.8211 30.4356 40.2778 30.9671C38.6186 32.5902 36.3191 33.2261 34.1652 32.8749C33.8159 33.5678 33.3405 34.2132 32.7486 34.7922C30.0998 37.3834 25.9569 37.6397 23.0073 35.561C20.572 37.5353 16.9432 37.4119 14.6632 35.1719L12.0532 32.6092L11.374 31.9447L7.91991 28.5657C7.38627 28.0437 6.68769 27.74 5.9406 27.683C5.9406 29.3535 4.54344 30.7108 2.83579 30.7108H-0.269007C-1.98635 30.7108 -3.37381 29.3535 -3.37381 27.6735V7.93104C-3.37381 7.09578 -2.67523 6.41238 -1.82141 6.41238H7.86169C8.05574 6.41238 8.24009 6.34594 8.37593 6.22255L10.9471 3.98254C13.6541 1.63812 17.1373 0.337769 20.7563 0.337769H21.7557C22.1826 0.337769 22.6192 0.356752 23.0364 0.394718ZM49.4078 24.6362V10.9683H44.7506C44.1782 10.9683 43.6251 10.7595 43.2079 10.3894L39.6277 7.27612C37.8618 5.73848 35.5818 4.89373 33.2143 4.89373C30.7499 4.89373 28.3825 5.81441 26.5875 7.46595L19.7861 13.7494C18.7867 14.6796 18.8061 16.2457 19.8346 17.1379C20.7369 17.9257 22.105 17.9067 22.9879 17.1094L29.964 10.807C30.9051 9.95274 32.3799 10.0097 33.2532 10.9399C34.1264 11.87 34.0682 13.3033 33.1173 14.1575L33.0397 14.2334L40.2584 21.2952C41.2286 22.2443 41.8593 23.4118 42.1407 24.6267H49.4078V24.6362ZM2.83579 26.1549C2.83579 25.7521 2.67224 25.3658 2.38111 25.081C2.08998 24.7962 1.69512 24.6362 1.28339 24.6362C0.871671 24.6362 0.476812 24.7962 0.18568 25.081C-0.105451 25.3658 -0.269007 25.7521 -0.269007 26.1549C-0.269007 26.5576 -0.105451 26.9439 0.18568 27.2287C0.476812 27.5135 0.871671 27.6735 1.28339 27.6735C1.69512 27.6735 2.08998 27.5135 2.38111 27.2287C2.67224 26.9439 2.83579 26.5576 2.83579 26.1549ZM54.065 27.6735C54.4768 27.6735 54.8716 27.5135 55.1628 27.2287C55.4539 26.9439 55.6174 26.5576 55.6174 26.1549C55.6174 25.7521 55.4539 25.3658 55.1628 25.081C54.8716 24.7962 54.4768 24.6362 54.065 24.6362C53.6533 24.6362 53.2584 24.7962 52.9673 25.081C52.6762 25.3658 52.5126 25.7521 52.5126 26.1549C52.5126 26.5576 52.6762 26.9439 52.9673 27.2287C53.2584 27.5135 53.6533 27.6735 54.065 27.6735Z" fill="#1D9A78"/>
</svg>
