<svg width="49" height="40" viewBox="0 0 49 40" fill="none" xmlns="http://www.w3.org/2000/svg">
<path fill-rule="evenodd" clip-rule="evenodd" d="M10.8007 15.2668C12.3285 15.2668 13.7937 14.6599 14.8741 13.5795C15.9544 12.4992 16.5613 11.034 16.5613 9.50613C16.5613 7.9783 15.9544 6.51305 14.8741 5.43271C13.7937 4.35238 12.3285 3.74545 10.8007 3.74545C9.27284 3.74545 7.80759 4.35238 6.72725 5.43271C5.64692 6.51305 5.03999 7.9783 5.03999 9.50613C5.03999 11.034 5.64692 12.4992 6.72725 13.5795C7.80759 14.6599 9.27284 15.2668 10.8007 15.2668ZM10.8007 18.1471C11.9354 18.1471 13.0591 17.9236 14.1074 17.4894C15.1558 17.0551 16.1084 16.4186 16.9108 15.6163C17.7132 14.8139 18.3497 13.8613 18.7839 12.8129C19.2182 11.7645 19.4417 10.6409 19.4417 9.50613C19.4417 8.37137 19.2182 7.24773 18.7839 6.19936C18.3497 5.15098 17.7132 4.1984 16.9108 3.39601C16.1084 2.59362 15.1558 1.95712 14.1074 1.52287C13.0591 1.08862 11.9354 0.865112 10.8007 0.865112C8.50893 0.865112 6.31105 1.7755 4.69055 3.39601C3.07004 5.01651 2.15965 7.21439 2.15965 9.50613C2.15965 11.7979 3.07004 13.9957 4.69055 15.6163C6.31105 17.2368 8.50893 18.1471 10.8007 18.1471Z" fill="#1D9A78"/>
<path fill-rule="evenodd" clip-rule="evenodd" d="M7.50062 14.9674C7.63474 15.1012 7.74115 15.2601 7.81375 15.4351C7.88636 15.61 7.92373 15.7976 7.92373 15.987C7.92373 16.1765 7.88636 16.364 7.81375 16.539C7.74115 16.714 7.63474 16.8729 7.50062 17.0067L6.52707 17.9773C4.65351 19.8514 3.60089 22.3928 3.60065 25.0428V30.3887C3.60065 30.7707 3.44891 31.137 3.17883 31.4071C2.90874 31.6772 2.54243 31.8289 2.16048 31.8289C1.77852 31.8289 1.41221 31.6772 1.14212 31.4071C0.872038 31.137 0.720306 30.7707 0.720306 30.3887V25.0428C0.720715 21.629 2.0769 18.3551 4.49067 15.9409L5.46134 14.9674C5.59512 14.8333 5.75405 14.7269 5.92901 14.6543C6.10398 14.5816 6.29155 14.5443 6.48098 14.5443C6.67042 14.5443 6.85799 14.5816 7.03295 14.6543C7.20792 14.7269 7.36684 14.8333 7.50062 14.9674ZM41.4656 14.1033C41.3315 14.2371 41.2251 14.396 41.1525 14.571C41.0798 14.7459 41.0425 14.9335 41.0425 15.1229C41.0425 15.3124 41.0798 15.4999 41.1525 15.6749C41.2251 15.8499 41.3315 16.0088 41.4656 16.1426L42.4391 17.1132C43.367 18.0411 44.1029 19.1426 44.6051 20.3549C45.1072 21.5672 45.3656 22.8665 45.3656 24.1787V30.3887C45.3656 30.7707 45.5173 31.137 45.7874 31.4071C46.0575 31.6772 46.4238 31.8289 46.8057 31.8289C47.1877 31.8289 47.554 31.6772 47.8241 31.4071C48.0942 31.137 48.2459 30.7707 48.2459 30.3887V24.1787C48.2455 20.7649 46.8893 17.491 44.4755 15.0768L43.5049 14.1033C43.3711 13.9692 43.2122 13.8628 43.0372 13.7902C42.8622 13.7175 42.6746 13.6802 42.4852 13.6802C42.2958 13.6802 42.1082 13.7175 41.9332 13.7902C41.7583 13.8628 41.5994 13.9692 41.4656 14.1033Z" fill="#1D9A78"/>
<path fill-rule="evenodd" clip-rule="evenodd" d="M36.7248 15.2668C35.197 15.2668 33.7317 14.6599 32.6514 13.5795C31.5711 12.4992 30.9641 11.034 30.9641 9.50613C30.9641 7.9783 31.5711 6.51305 32.6514 5.43271C33.7317 4.35238 35.197 3.74545 36.7248 3.74545C38.2526 3.74545 39.7179 4.35238 40.7982 5.43271C41.8786 6.51305 42.4855 7.9783 42.4855 9.50613C42.4855 11.034 41.8786 12.4992 40.7982 13.5795C39.7179 14.6599 38.2526 15.2668 36.7248 15.2668ZM36.7248 18.1471C35.5901 18.1471 34.4664 17.9236 33.418 17.4894C32.3697 17.0551 31.4171 16.4186 30.6147 15.6163C29.8123 14.8139 29.1758 13.8613 28.7416 12.8129C28.3073 11.7645 28.0838 10.6409 28.0838 9.50613C28.0838 8.37137 28.3073 7.24773 28.7416 6.19936C29.1758 5.15098 29.8123 4.1984 30.6147 3.39601C31.4171 2.59362 32.3697 1.95712 33.418 1.52287C34.4664 1.08862 35.5901 0.865112 36.7248 0.865112C39.0166 0.865112 41.2144 1.7755 42.8349 3.39601C44.4554 5.01651 45.3658 7.21439 45.3658 9.50613C45.3658 11.7979 44.4554 13.9957 42.8349 15.6163C41.2144 17.2368 39.0166 18.1471 36.7248 18.1471ZM23.7633 27.5082C21.8535 27.5082 20.0219 28.2669 18.6715 29.6173C17.3211 30.9677 16.5624 32.7993 16.5624 34.7091V38.4535C16.5624 38.8355 16.4107 39.2018 16.1406 39.4719C15.8705 39.742 15.5042 39.8937 15.1223 39.8937C14.7403 39.8937 14.374 39.742 14.1039 39.4719C13.8338 39.2018 13.6821 38.8355 13.6821 38.4535V34.7091C13.6821 32.0354 14.7442 29.4712 16.6348 27.5806C18.5254 25.69 21.0896 24.6279 23.7633 24.6279C26.437 24.6279 29.0012 25.69 30.8918 27.5806C32.7823 29.4712 33.8445 32.0354 33.8445 34.7091V38.4535C33.8445 38.8355 33.6927 39.2018 33.4227 39.4719C33.1526 39.742 32.7863 39.8937 32.4043 39.8937C32.0223 39.8937 31.656 39.742 31.3859 39.4719C31.1159 39.2018 30.9641 38.8355 30.9641 38.4535V34.7091C30.9641 33.7635 30.7779 32.8271 30.416 31.9534C30.0541 31.0798 29.5237 30.286 28.8551 29.6173C28.1864 28.9487 27.3926 28.4183 26.5189 28.0564C25.6453 27.6945 24.7089 27.5082 23.7633 27.5082Z" fill="#1D9A78"/>
<path fill-rule="evenodd" clip-rule="evenodd" d="M23.7644 23.1878C25.2922 23.1878 26.7575 22.5809 27.8378 21.5006C28.9181 20.4202 29.5251 18.955 29.5251 17.4271C29.5251 15.8993 28.9181 14.4341 27.8378 13.3537C26.7575 12.2734 25.2922 11.6665 23.7644 11.6665C22.2366 11.6665 20.7713 12.2734 19.691 13.3537C18.6106 14.4341 18.0037 15.8993 18.0037 17.4271C18.0037 18.955 18.6106 20.4202 19.691 21.5006C20.7713 22.5809 22.2366 23.1878 23.7644 23.1878ZM23.7644 26.0682C26.0561 26.0682 28.254 25.1578 29.8745 23.5373C31.495 21.9168 32.4054 19.7189 32.4054 17.4271C32.4054 15.1354 31.495 12.9375 29.8745 11.317C28.254 9.69652 26.0561 8.78613 23.7644 8.78613C21.4727 8.78613 19.2748 9.69652 17.6543 11.317C16.0338 12.9375 15.1234 15.1354 15.1234 17.4271C15.1234 19.7189 16.0338 21.9168 17.6543 23.5373C19.2748 25.1578 21.4727 26.0682 23.7644 26.0682Z" fill="#1D9A78"/>
</svg>
